G04*
G04 #@! TF.GenerationSoftware,Altium Limited,Altium Designer,21.2.0 (30)*
G04*
G04 Layer_Color=65535*
%FSLAX44Y44*%
%MOMM*%
G71*
G04*
G04 #@! TF.SameCoordinates,A6CD76A2-BFCB-4AF9-B6D0-9A86C89395A1*
G04*
G04*
G04 #@! TF.FilePolarity,Positive*
G04*
G01*
G75*
%ADD10C,0.4000*%
%ADD11C,0.2000*%
%ADD12C,0.2540*%
%ADD13C,0.1270*%
D10*
X977850Y842040D02*
G03*
X977850Y842040I-1000J0D01*
G01*
X263860Y853660D02*
G03*
X263860Y853660I-1000J0D01*
G01*
X324260Y66260D02*
G03*
X324260Y66260I-1000J0D01*
G01*
X395390Y847120D02*
G03*
X395390Y847120I-1000J0D01*
G01*
X737490Y66070D02*
G03*
X737490Y66070I-1000J0D01*
G01*
D11*
X885620Y499310D02*
G03*
X885620Y499310I-52500J0D01*
G01*
X778740Y401320D02*
G03*
X778740Y401320I-52500J0D01*
G01*
X849340Y651750D02*
G03*
X849340Y651750I-34000J0D01*
G01*
X900070Y392310D02*
G03*
X900070Y392310I-22500J0D01*
G01*
X116840Y302660D02*
G03*
X116840Y352660I0J25000D01*
G01*
X64840D02*
G03*
X64840Y302660I0J-25000D01*
G01*
X344170Y549240D02*
G03*
X344170Y497240I0J-26000D01*
G01*
X395370D02*
G03*
X395370Y549240I0J26000D01*
G01*
X333340Y659130D02*
G03*
X281340Y659130I-26000J0D01*
G01*
Y607930D02*
G03*
X333340Y607930I26000J0D01*
G01*
X119780Y455330D02*
G03*
X119780Y507330I0J26000D01*
G01*
X68580D02*
G03*
X68580Y455330I0J-26000D01*
G01*
X332070Y259080D02*
G03*
X280070Y259080I-26000J0D01*
G01*
Y207880D02*
G03*
X332070Y207880I26000J0D01*
G01*
X85960Y862930D02*
G03*
X85960Y810930I0J-26000D01*
G01*
X137160D02*
G03*
X137160Y862930I0J26000D01*
G01*
X483000Y271180D02*
G03*
X483000Y323180I0J26000D01*
G01*
X431800D02*
G03*
X431800Y271180I0J-26000D01*
G01*
X408940Y725770D02*
G03*
X408940Y673770I0J-26000D01*
G01*
X460140D02*
G03*
X460140Y725770I0J26000D01*
G01*
X142630Y606236D02*
G03*
X142630Y606236I-55000J0D01*
G01*
Y730696D02*
G03*
X142630Y730696I-55000J0D01*
G01*
X765130Y675640D02*
G03*
X765130Y675640I-55000J0D01*
G01*
X246930Y594360D02*
G03*
X246930Y594360I-1000J0D01*
G01*
X185150Y384320D02*
G03*
X185150Y384320I-1000J0D01*
G01*
X194490Y273050D02*
G03*
X194490Y273050I-1000J0D01*
G01*
X531980Y690880D02*
G03*
X531980Y690880I-1000J0D01*
G01*
X496300Y391940D02*
G03*
X496300Y391940I-1000J0D01*
G01*
X876030Y315780D02*
G03*
X876030Y315780I-1000J0D01*
G01*
X258830Y722630D02*
G03*
X258830Y722630I-22500J0D01*
G01*
X654850Y566420D02*
G03*
X654850Y566420I-22500J0D01*
G01*
X525530Y198120D02*
G03*
X525530Y198120I-22500J0D01*
G01*
X163310Y210820D02*
G03*
X163310Y210820I-60000J0D01*
G01*
X159500Y71120D02*
G03*
X159500Y71120I-60000J0D01*
G01*
X676390Y814070D02*
G03*
X676390Y814070I-60000J0D01*
G01*
X987050Y853040D02*
X994050D01*
X929650D02*
X936650D01*
X994050D02*
X999850D01*
X936650D02*
X987050D01*
X923850D02*
X929650D01*
X923850Y746040D02*
Y853040D01*
Y746040D02*
X999850D01*
Y853040D01*
X136810Y406400D02*
Y418900D01*
X50800D02*
X136810D01*
Y393700D02*
Y406400D01*
X50800Y393700D02*
X136810D01*
X50800D02*
Y418900D01*
X172030Y320240D02*
Y332740D01*
Y320240D02*
X258040D01*
X172030Y332740D02*
Y345440D01*
X258040D01*
Y320240D02*
Y345440D01*
X257230Y482600D02*
Y495100D01*
X171220D02*
X257230D01*
Y469900D02*
Y482600D01*
X171220Y469900D02*
X257230D01*
X171220D02*
Y495100D01*
X496770Y111180D02*
X509270D01*
X496770Y25170D02*
Y111180D01*
X509270D02*
X521970D01*
Y25170D02*
Y111180D01*
X496770Y25170D02*
X521970D01*
X359610Y653470D02*
X372110D01*
X359610Y567460D02*
Y653470D01*
X372110D02*
X384810D01*
Y567460D02*
Y653470D01*
X359610Y567460D02*
X384810D01*
X203400Y871910D02*
X215900D01*
X203400Y785900D02*
Y871910D01*
X215900D02*
X228600D01*
Y785900D02*
Y871910D01*
X203400Y785900D02*
X228600D01*
X170760Y527250D02*
Y539750D01*
Y527250D02*
X256770D01*
X170760Y539750D02*
Y552450D01*
X256770D01*
Y527250D02*
Y552450D01*
X367720Y739140D02*
Y751640D01*
X281710D02*
X367720D01*
Y726440D02*
Y739140D01*
X281710Y726440D02*
X367720D01*
X281710D02*
Y751640D01*
X360880Y275010D02*
X373380D01*
X360880Y189000D02*
Y275010D01*
X373380D02*
X386080D01*
Y189000D02*
Y275010D01*
X360880Y189000D02*
X386080D01*
X322780Y459160D02*
X335280D01*
X322780Y373150D02*
Y459160D01*
X335280D02*
X347980D01*
Y373150D02*
Y459160D01*
X322780Y373150D02*
X347980D01*
X349940Y139700D02*
Y152200D01*
X263930D02*
X349940D01*
Y127000D02*
Y139700D01*
X263930Y127000D02*
X349940D01*
X263930D02*
Y152200D01*
X197449Y98600D02*
X209949D01*
X197449Y12590D02*
Y98600D01*
X209949D02*
X222649D01*
Y12590D02*
Y98600D01*
X197449Y12590D02*
X222649D01*
X377390Y460430D02*
X389890D01*
X377390Y374420D02*
Y460430D01*
X389890D02*
X402590D01*
Y374420D02*
Y460430D01*
X377390Y374420D02*
X402590D01*
X749880Y730450D02*
Y742950D01*
Y730450D02*
X835890D01*
X749880Y742950D02*
Y755650D01*
X835890D01*
Y730450D02*
Y755650D01*
X456280Y560270D02*
Y572770D01*
Y560270D02*
X542290D01*
X456280Y572770D02*
Y585470D01*
X542290D01*
Y560270D02*
Y585470D01*
X434920Y738070D02*
Y750570D01*
Y738070D02*
X520930D01*
X434920Y750570D02*
Y763270D01*
X520930D01*
Y738070D02*
Y763270D01*
X515620Y784170D02*
X528120D01*
Y870180D01*
X502920Y784170D02*
X515620D01*
X502920D02*
Y870180D01*
X528120D01*
X455240Y499310D02*
Y511810D01*
Y499310D02*
X541250D01*
X455240Y511810D02*
Y524510D01*
X541250D01*
Y499310D02*
Y524510D01*
X447040Y375000D02*
X459540D01*
Y461010D01*
X434340Y375000D02*
X447040D01*
X434340D02*
Y461010D01*
X459540D01*
X571700Y109910D02*
X584200D01*
X571700Y23900D02*
Y109910D01*
X584200D02*
X596900D01*
Y23900D02*
Y109910D01*
X571700Y23900D02*
X596900D01*
X479480Y153670D02*
Y166170D01*
X393470D02*
X479480D01*
Y140970D02*
Y153670D01*
X393470Y140970D02*
X479480D01*
X393470D02*
Y166170D01*
X761650Y575310D02*
Y587810D01*
X675640D02*
X761650D01*
Y562610D02*
Y575310D01*
X675640Y562610D02*
X761650D01*
X675640D02*
Y587810D01*
X647900Y109910D02*
X660400D01*
X647900Y23900D02*
Y109910D01*
X660400D02*
X673100D01*
Y23900D02*
Y109910D01*
X647900Y23900D02*
X673100D01*
X871220Y12010D02*
X883720D01*
Y98020D01*
X858520Y12010D02*
X871220D01*
X858520D02*
Y98020D01*
X883720D01*
X857940Y179070D02*
Y191570D01*
X771930D02*
X857940D01*
Y166370D02*
Y179070D01*
X771930Y166370D02*
X857940D01*
X771930D02*
Y191570D01*
X761650Y513080D02*
Y525580D01*
X675640D02*
X761650D01*
Y500380D02*
Y513080D01*
X675640Y500380D02*
X761650D01*
X675640D02*
Y525580D01*
X251860Y863860D02*
Y870860D01*
Y806460D02*
Y813460D01*
Y870860D02*
Y876660D01*
Y813460D02*
Y863860D01*
Y800660D02*
Y806460D01*
Y800660D02*
X358860D01*
Y876660D01*
X251860D02*
X358860D01*
X312260Y76460D02*
Y83460D01*
Y19060D02*
Y26060D01*
Y83460D02*
Y89260D01*
Y26060D02*
Y76460D01*
Y13260D02*
Y19060D01*
Y13260D02*
X419260D01*
Y89260D01*
X312260D02*
X419260D01*
X377390Y869120D02*
X479390D01*
Y792120D02*
Y869120D01*
X377390Y792120D02*
X479390D01*
X377390D02*
Y869120D01*
X719490Y88070D02*
X821490D01*
Y11070D02*
Y88070D01*
X719490Y11070D02*
X821490D01*
X719490D02*
Y88070D01*
X833120Y416330D02*
Y426490D01*
X828040Y421410D02*
X838200D01*
X799060Y401320D02*
X809220D01*
X804140Y396240D02*
Y406400D01*
X810260Y592350D02*
X820420D01*
X815340Y587270D02*
Y597430D01*
X872490Y353300D02*
X882650D01*
X877570Y348220D02*
Y358380D01*
X678180Y191770D02*
Y218440D01*
X751840D01*
Y165100D02*
Y218440D01*
X678180Y165100D02*
X751840D01*
X678180D02*
Y191770D01*
X675640Y283210D02*
Y309880D01*
X749300D01*
Y256540D02*
Y309880D01*
X675640Y256540D02*
X749300D01*
X675640D02*
Y283210D01*
X900460Y678360D02*
Y700860D01*
X871430Y678360D02*
X900460D01*
X871430D02*
Y701040D01*
X900460D01*
Y689610D02*
X903000D01*
X868890Y689790D02*
X871250D01*
X902970Y618670D02*
Y641170D01*
X873940Y618670D02*
X902970D01*
X873940D02*
Y641350D01*
X902970D01*
Y629920D02*
X905510D01*
X871400Y630100D02*
X873760D01*
X64840Y302660D02*
X116840D01*
X64840Y352660D02*
X116840D01*
X344170Y549240D02*
X395370D01*
X344170Y497240D02*
X395370D01*
X333340Y607930D02*
Y659130D01*
X281340Y607930D02*
Y659130D01*
X68580Y455330D02*
X119780D01*
X68580Y507330D02*
X119780D01*
X332070Y207880D02*
Y259080D01*
X280070Y207880D02*
Y259080D01*
X85960Y862930D02*
X137160D01*
X85960Y810930D02*
X137160D01*
X431800Y271180D02*
X483000D01*
X431800Y323180D02*
X483000D01*
X408940Y725770D02*
X460140D01*
X408940Y673770D02*
X460140D01*
X592380Y388970D02*
Y419450D01*
X654050Y388970D02*
Y419450D01*
X626110D02*
Y445200D01*
X624840Y182530D02*
Y208280D01*
X592380Y419450D02*
X627380D01*
X592380Y208280D02*
Y388970D01*
Y208280D02*
X654050D01*
Y388970D01*
X627380Y419450D02*
X654050D01*
D12*
X689610Y207010D02*
G03*
X689610Y207010I-1270J0D01*
G01*
X687070Y298450D02*
G03*
X687070Y298450I-1270J0D01*
G01*
X897920Y689610D02*
G03*
X897920Y689610I-1270J0D01*
G01*
X900430Y629920D02*
G03*
X900430Y629920I-1270J0D01*
G01*
X331640Y332740D02*
X382440D01*
Y309880D02*
Y332740D01*
X331640Y309880D02*
X382440D01*
X331640D02*
Y332740D01*
X854710Y756920D02*
X905510D01*
Y734060D02*
Y756920D01*
X854710Y734060D02*
X905510D01*
X854710D02*
Y756920D01*
X990601Y887728D02*
X985523D01*
X988062D01*
Y875032D01*
X985523Y872493D01*
X982983D01*
X980444Y875032D01*
X1003297Y872493D02*
Y887728D01*
X995679Y880110D01*
X1005836D01*
X866137Y436622D02*
X863597Y439161D01*
X858519D01*
X855980Y436622D01*
Y426465D01*
X858519Y423926D01*
X863597D01*
X866137Y426465D01*
X871215Y439161D02*
X881372D01*
Y436622D01*
X871215Y426465D01*
Y423926D01*
X436886Y770892D02*
Y786127D01*
X444504D01*
X447043Y783588D01*
Y778510D01*
X444504Y775971D01*
X436886D01*
X441964D02*
X447043Y770892D01*
X452121D02*
X457200D01*
X454660D01*
Y786127D01*
X452121Y783588D01*
X474974Y786127D02*
X469896Y783588D01*
X464817Y778510D01*
Y773432D01*
X467356Y770892D01*
X472435D01*
X474974Y773432D01*
Y775971D01*
X472435Y778510D01*
X464817D01*
X27941Y673098D02*
X25402Y675638D01*
X20323D01*
X17784Y673098D01*
Y662942D01*
X20323Y660403D01*
X25402D01*
X27941Y662942D01*
X33019Y673098D02*
X35558Y675638D01*
X40637D01*
X43176Y673098D01*
Y670559D01*
X40637Y668020D01*
X38098D01*
X40637D01*
X43176Y665481D01*
Y662942D01*
X40637Y660403D01*
X35558D01*
X33019Y662942D01*
X44447Y807208D02*
X41908Y809747D01*
X36829D01*
X34290Y807208D01*
Y797051D01*
X36829Y794512D01*
X41908D01*
X44447Y797051D01*
X57143Y794512D02*
Y809747D01*
X49525Y802130D01*
X59682D01*
X40643Y148588D02*
X38104Y151128D01*
X33025D01*
X30486Y148588D01*
Y138432D01*
X33025Y135892D01*
X38104D01*
X40643Y138432D01*
X45721Y135892D02*
X50800D01*
X48260D01*
Y151128D01*
X45721Y148588D01*
X68574Y135892D02*
X58417D01*
X68574Y146049D01*
Y148588D01*
X66035Y151128D01*
X60956D01*
X58417Y148588D01*
X631193Y726438D02*
X628654Y728978D01*
X623575D01*
X621036Y726438D01*
Y716282D01*
X623575Y713743D01*
X628654D01*
X631193Y716282D01*
X636271Y713743D02*
X641350D01*
X638810D01*
Y728978D01*
X636271Y726438D01*
X659124Y728978D02*
X648967D01*
Y721360D01*
X654045Y723899D01*
X656585D01*
X659124Y721360D01*
Y716282D01*
X656585Y713743D01*
X651506D01*
X648967Y716282D01*
X585473Y892808D02*
X582934Y895348D01*
X577855D01*
X575316Y892808D01*
Y882652D01*
X577855Y880113D01*
X582934D01*
X585473Y882652D01*
X590551Y880113D02*
X595630D01*
X593090D01*
Y895348D01*
X590551Y892808D01*
X603247D02*
X605786Y895348D01*
X610865D01*
X613404Y892808D01*
Y890269D01*
X610865Y887730D01*
X608326D01*
X610865D01*
X613404Y885191D01*
Y882652D01*
X610865Y880113D01*
X605786D01*
X603247Y882652D01*
X260910Y897887D02*
X255832D01*
X258371D01*
Y885192D01*
X255832Y882653D01*
X253293D01*
X250753Y885192D01*
X265988Y882653D02*
X271067D01*
X268528D01*
Y897887D01*
X265988Y895348D01*
X128276Y383537D02*
X133355D01*
X130815D01*
Y368302D01*
X128276D01*
X133355D01*
X151129Y380998D02*
X148590Y383537D01*
X143511D01*
X140972Y380998D01*
Y370842D01*
X143511Y368302D01*
X148590D01*
X151129Y370842D01*
X166364Y368302D02*
X156207D01*
X166364Y378459D01*
Y380998D01*
X163825Y383537D01*
X158746D01*
X156207Y380998D01*
X264164Y327663D02*
Y342897D01*
X271782D01*
X274321Y340358D01*
Y335280D01*
X271782Y332741D01*
X264164D01*
X269242D02*
X274321Y327663D01*
X289556D02*
X279399D01*
X289556Y337819D01*
Y340358D01*
X287017Y342897D01*
X281938D01*
X279399Y340358D01*
X323851Y111757D02*
X318773D01*
X321312D01*
Y99062D01*
X318773Y96523D01*
X316233D01*
X313694Y99062D01*
X339086Y96523D02*
X328929D01*
X339086Y106679D01*
Y109218D01*
X336547Y111757D01*
X331468D01*
X328929Y109218D01*
X677164Y333751D02*
X687321D01*
Y331212D01*
X677164Y321055D01*
Y318516D01*
X687321D01*
X692399Y333751D02*
Y318516D01*
X700017D01*
X702556Y321055D01*
Y331212D01*
X700017Y333751D01*
X692399D01*
X717791Y318516D02*
X707634D01*
X717791Y328673D01*
Y331212D01*
X715252Y333751D01*
X710173D01*
X707634Y331212D01*
X679704Y242311D02*
X689861D01*
Y239772D01*
X679704Y229615D01*
Y227076D01*
X689861D01*
X694939Y242311D02*
Y227076D01*
X702557D01*
X705096Y229615D01*
Y239772D01*
X702557Y242311D01*
X694939D01*
X710174Y227076D02*
X715253D01*
X712713D01*
Y242311D01*
X710174Y239772D01*
X676910Y534670D02*
Y549905D01*
X684528D01*
X687067Y547366D01*
Y542287D01*
X684528Y539748D01*
X676910D01*
X681988D02*
X687067Y534670D01*
X702302D02*
X692145D01*
X702302Y544827D01*
Y547366D01*
X699763Y549905D01*
X694684D01*
X692145Y547366D01*
X707380Y549905D02*
X717537D01*
Y547366D01*
X707380Y537209D01*
Y534670D01*
X773176Y200660D02*
Y215895D01*
X780794D01*
X783333Y213356D01*
Y208277D01*
X780794Y205738D01*
X773176D01*
X778254D02*
X783333Y200660D01*
X798568D02*
X788411D01*
X798568Y210817D01*
Y213356D01*
X796029Y215895D01*
X790950D01*
X788411Y213356D01*
X813803Y215895D02*
X808725Y213356D01*
X803646Y208277D01*
Y203199D01*
X806185Y200660D01*
X811264D01*
X813803Y203199D01*
Y205738D01*
X811264Y208277D01*
X803646D01*
X859790Y106934D02*
Y122169D01*
X867408D01*
X869947Y119630D01*
Y114551D01*
X867408Y112012D01*
X859790D01*
X864868D02*
X869947Y106934D01*
X885182D02*
X875025D01*
X885182Y117091D01*
Y119630D01*
X882643Y122169D01*
X877564D01*
X875025Y119630D01*
X900417Y122169D02*
X890260D01*
Y114551D01*
X895339Y117091D01*
X897878D01*
X900417Y114551D01*
Y109473D01*
X897878Y106934D01*
X892799D01*
X890260Y109473D01*
X648970Y119126D02*
Y134361D01*
X656588D01*
X659127Y131822D01*
Y126743D01*
X656588Y124204D01*
X648970D01*
X654048D02*
X659127Y119126D01*
X674362D02*
X664205D01*
X674362Y129283D01*
Y131822D01*
X671823Y134361D01*
X666744D01*
X664205Y131822D01*
X687058Y119126D02*
Y134361D01*
X679440Y126743D01*
X689597D01*
X676910Y596900D02*
Y612135D01*
X684528D01*
X687067Y609596D01*
Y604518D01*
X684528Y601978D01*
X676910D01*
X681988D02*
X687067Y596900D01*
X702302D02*
X692145D01*
X702302Y607057D01*
Y609596D01*
X699763Y612135D01*
X694684D01*
X692145Y609596D01*
X707380D02*
X709919Y612135D01*
X714998D01*
X717537Y609596D01*
Y607057D01*
X714998Y604518D01*
X712458D01*
X714998D01*
X717537Y601978D01*
Y599439D01*
X714998Y596900D01*
X709919D01*
X707380Y599439D01*
X394716Y175260D02*
Y190495D01*
X402333D01*
X404873Y187956D01*
Y182878D01*
X402333Y180338D01*
X394716D01*
X399794D02*
X404873Y175260D01*
X420108D02*
X409951D01*
X420108Y185417D01*
Y187956D01*
X417569Y190495D01*
X412490D01*
X409951Y187956D01*
X435343Y175260D02*
X425186D01*
X435343Y185417D01*
Y187956D01*
X432804Y190495D01*
X427725D01*
X425186Y187956D01*
X593344Y471932D02*
Y487167D01*
X600961D01*
X603501Y484628D01*
Y479549D01*
X600961Y477010D01*
X593344D01*
X598422D02*
X603501Y471932D01*
X618736D02*
X608579D01*
X618736Y482089D01*
Y484628D01*
X616197Y487167D01*
X611118D01*
X608579Y484628D01*
X623814Y471932D02*
X628893D01*
X626353D01*
Y487167D01*
X623814Y484628D01*
X572770Y119126D02*
Y134361D01*
X580387D01*
X582927Y131822D01*
Y126743D01*
X580387Y124204D01*
X572770D01*
X577848D02*
X582927Y119126D01*
X598162D02*
X588005D01*
X598162Y129283D01*
Y131822D01*
X595623Y134361D01*
X590544D01*
X588005Y131822D01*
X603240D02*
X605779Y134361D01*
X610858D01*
X613397Y131822D01*
Y121665D01*
X610858Y119126D01*
X605779D01*
X603240Y121665D01*
Y131822D01*
X435610Y469900D02*
Y485135D01*
X443228D01*
X445767Y482596D01*
Y477518D01*
X443228Y474978D01*
X435610D01*
X440688D02*
X445767Y469900D01*
X450845D02*
X455923D01*
X453384D01*
Y485135D01*
X450845Y482596D01*
X463541Y472439D02*
X466080Y469900D01*
X471158D01*
X473698Y472439D01*
Y482596D01*
X471158Y485135D01*
X466080D01*
X463541Y482596D01*
Y480057D01*
X466080Y477518D01*
X473698D01*
X456184Y533400D02*
Y548635D01*
X463801D01*
X466341Y546096D01*
Y541017D01*
X463801Y538478D01*
X456184D01*
X461262D02*
X466341Y533400D01*
X471419D02*
X476497D01*
X473958D01*
Y548635D01*
X471419Y546096D01*
X484115D02*
X486654Y548635D01*
X491732D01*
X494272Y546096D01*
Y543557D01*
X491732Y541017D01*
X494272Y538478D01*
Y535939D01*
X491732Y533400D01*
X486654D01*
X484115Y535939D01*
Y538478D01*
X486654Y541017D01*
X484115Y543557D01*
Y546096D01*
X486654Y541017D02*
X491732D01*
X504190Y879094D02*
Y894329D01*
X511808D01*
X514347Y891790D01*
Y886712D01*
X511808Y884172D01*
X504190D01*
X509268D02*
X514347Y879094D01*
X519425D02*
X524503D01*
X521964D01*
Y894329D01*
X519425Y891790D01*
X532121Y894329D02*
X542278D01*
Y891790D01*
X532121Y881633D01*
Y879094D01*
X457200Y594360D02*
Y609595D01*
X464818D01*
X467357Y607056D01*
Y601978D01*
X464818Y599438D01*
X457200D01*
X462278D02*
X467357Y594360D01*
X472435D02*
X477513D01*
X474974D01*
Y609595D01*
X472435Y607056D01*
X495288Y609595D02*
X485131D01*
Y601978D01*
X490209Y604517D01*
X492748D01*
X495288Y601978D01*
Y596899D01*
X492748Y594360D01*
X487670D01*
X485131Y596899D01*
X750824Y764540D02*
Y779775D01*
X758441D01*
X760981Y777236D01*
Y772158D01*
X758441Y769618D01*
X750824D01*
X755902D02*
X760981Y764540D01*
X766059D02*
X771137D01*
X768598D01*
Y779775D01*
X766059Y777236D01*
X786373Y764540D02*
Y779775D01*
X778755Y772158D01*
X788912D01*
X378460Y469646D02*
Y484881D01*
X386077D01*
X388617Y482342D01*
Y477263D01*
X386077Y474724D01*
X378460D01*
X383538D02*
X388617Y469646D01*
X393695D02*
X398773D01*
X396234D01*
Y484881D01*
X393695Y482342D01*
X406391D02*
X408930Y484881D01*
X414008D01*
X416548Y482342D01*
Y479803D01*
X414008Y477263D01*
X411469D01*
X414008D01*
X416548Y474724D01*
Y472185D01*
X414008Y469646D01*
X408930D01*
X406391Y472185D01*
X198628Y107950D02*
Y123185D01*
X206245D01*
X208785Y120646D01*
Y115568D01*
X206245Y113028D01*
X198628D01*
X203706D02*
X208785Y107950D01*
X213863D02*
X218941D01*
X216402D01*
Y123185D01*
X213863Y120646D01*
X236716Y107950D02*
X226559D01*
X236716Y118107D01*
Y120646D01*
X234177Y123185D01*
X229098D01*
X226559Y120646D01*
X265176Y161290D02*
Y176525D01*
X272794D01*
X275333Y173986D01*
Y168908D01*
X272794Y166368D01*
X265176D01*
X270254D02*
X275333Y161290D01*
X280411D02*
X285489D01*
X282950D01*
Y176525D01*
X280411Y173986D01*
X293107Y161290D02*
X298185D01*
X295646D01*
Y176525D01*
X293107Y173986D01*
X323850Y468376D02*
Y483611D01*
X331468D01*
X334007Y481072D01*
Y475993D01*
X331468Y473454D01*
X323850D01*
X328928D02*
X334007Y468376D01*
X339085D02*
X344163D01*
X341624D01*
Y483611D01*
X339085Y481072D01*
X351781D02*
X354320Y483611D01*
X359398D01*
X361938Y481072D01*
Y470915D01*
X359398Y468376D01*
X354320D01*
X351781Y470915D01*
Y481072D01*
X361950Y284226D02*
Y299461D01*
X369567D01*
X372107Y296922D01*
Y291843D01*
X369567Y289304D01*
X361950D01*
X367028D02*
X372107Y284226D01*
X377185Y286765D02*
X379724Y284226D01*
X384803D01*
X387342Y286765D01*
Y296922D01*
X384803Y299461D01*
X379724D01*
X377185Y296922D01*
Y294383D01*
X379724Y291843D01*
X387342D01*
X282956Y760730D02*
Y775965D01*
X290574D01*
X293113Y773426D01*
Y768347D01*
X290574Y765808D01*
X282956D01*
X288034D02*
X293113Y760730D01*
X298191Y773426D02*
X300730Y775965D01*
X305809D01*
X308348Y773426D01*
Y770887D01*
X305809Y768347D01*
X308348Y765808D01*
Y763269D01*
X305809Y760730D01*
X300730D01*
X298191Y763269D01*
Y765808D01*
X300730Y768347D01*
X298191Y770887D01*
Y773426D01*
X300730Y768347D02*
X305809D01*
X171704Y561340D02*
Y576575D01*
X179321D01*
X181861Y574036D01*
Y568957D01*
X179321Y566418D01*
X171704D01*
X176782D02*
X181861Y561340D01*
X186939Y576575D02*
X197096D01*
Y574036D01*
X186939Y563879D01*
Y561340D01*
X204470Y881126D02*
Y896361D01*
X212087D01*
X214627Y893822D01*
Y888744D01*
X212087Y886204D01*
X204470D01*
X209548D02*
X214627Y881126D01*
X229862Y896361D02*
X224783Y893822D01*
X219705Y888744D01*
Y883665D01*
X222244Y881126D01*
X227323D01*
X229862Y883665D01*
Y886204D01*
X227323Y888744D01*
X219705D01*
X360680Y662686D02*
Y677921D01*
X368298D01*
X370837Y675382D01*
Y670303D01*
X368298Y667764D01*
X360680D01*
X365758D02*
X370837Y662686D01*
X386072Y677921D02*
X375915D01*
Y670303D01*
X380993Y672843D01*
X383533D01*
X386072Y670303D01*
Y665225D01*
X383533Y662686D01*
X378454D01*
X375915Y665225D01*
X497840Y120396D02*
Y135631D01*
X505457D01*
X507997Y133092D01*
Y128013D01*
X505457Y125474D01*
X497840D01*
X502918D02*
X507997Y120396D01*
X520693D02*
Y135631D01*
X513075Y128013D01*
X523232D01*
X172466Y504190D02*
Y519425D01*
X180084D01*
X182623Y516886D01*
Y511808D01*
X180084Y509268D01*
X172466D01*
X177544D02*
X182623Y504190D01*
X187701Y516886D02*
X190240Y519425D01*
X195319D01*
X197858Y516886D01*
Y514347D01*
X195319Y511808D01*
X192779D01*
X195319D01*
X197858Y509268D01*
Y506729D01*
X195319Y504190D01*
X190240D01*
X187701Y506729D01*
X52070Y427990D02*
Y443225D01*
X59688D01*
X62227Y440686D01*
Y435607D01*
X59688Y433068D01*
X52070D01*
X57148D02*
X62227Y427990D01*
X67305D02*
X72383D01*
X69844D01*
Y443225D01*
X67305Y440686D01*
X855980Y781045D02*
Y765810D01*
X866137D01*
X871215Y781045D02*
Y765810D01*
Y770888D01*
X881372Y781045D01*
X873754Y773428D01*
X881372Y765810D01*
X896607D02*
X886450D01*
X896607Y775967D01*
Y778506D01*
X894068Y781045D01*
X888989D01*
X886450Y778506D01*
X332994Y356865D02*
Y341630D01*
X343151D01*
X348229Y356865D02*
Y341630D01*
Y346708D01*
X358386Y356865D01*
X350768Y349248D01*
X358386Y341630D01*
X363464D02*
X368543D01*
X366003D01*
Y356865D01*
X363464Y354326D01*
X718309Y895345D02*
X713230D01*
X715770D01*
Y882649D01*
X713230Y880110D01*
X710691D01*
X708152Y882649D01*
X723387Y892806D02*
X725926Y895345D01*
X731005D01*
X733544Y892806D01*
Y890267D01*
X731005Y887728D01*
X728465D01*
X731005D01*
X733544Y885188D01*
Y882649D01*
X731005Y880110D01*
X725926D01*
X723387Y882649D01*
X789432Y360167D02*
X794510D01*
X791971D01*
Y344932D01*
X789432D01*
X794510D01*
X812285Y357628D02*
X809745Y360167D01*
X804667D01*
X802128Y357628D01*
Y347471D01*
X804667Y344932D01*
X809745D01*
X812285Y347471D01*
X827520Y360167D02*
X822441Y357628D01*
X817363Y352550D01*
Y347471D01*
X819902Y344932D01*
X824980D01*
X827520Y347471D01*
Y350010D01*
X824980Y352550D01*
X817363D01*
X488188Y486151D02*
X493266D01*
X490727D01*
Y470916D01*
X488188D01*
X493266D01*
X511041Y483612D02*
X508501Y486151D01*
X503423D01*
X500884Y483612D01*
Y473455D01*
X503423Y470916D01*
X508501D01*
X511041Y473455D01*
X526276Y486151D02*
X516119D01*
Y478534D01*
X521197Y481073D01*
X523736D01*
X526276Y478534D01*
Y473455D01*
X523736Y470916D01*
X518658D01*
X516119Y473455D01*
X512064Y723387D02*
X517142D01*
X514603D01*
Y708152D01*
X512064D01*
X517142D01*
X534917Y720848D02*
X532377Y723387D01*
X527299D01*
X524760Y720848D01*
Y710691D01*
X527299Y708152D01*
X532377D01*
X534917Y710691D01*
X547612Y708152D02*
Y723387D01*
X539995Y715770D01*
X550152D01*
X174498Y305557D02*
X179576D01*
X177037D01*
Y290322D01*
X174498D01*
X179576D01*
X197351Y303018D02*
X194811Y305557D01*
X189733D01*
X187194Y303018D01*
Y292861D01*
X189733Y290322D01*
X194811D01*
X197351Y292861D01*
X202429Y303018D02*
X204968Y305557D01*
X210047D01*
X212586Y303018D01*
Y300479D01*
X210047Y297939D01*
X207507D01*
X210047D01*
X212586Y295400D01*
Y292861D01*
X210047Y290322D01*
X204968D01*
X202429Y292861D01*
X177038Y705607D02*
X182116D01*
X179577D01*
Y690372D01*
X177038D01*
X182116D01*
X199891Y703068D02*
X197351Y705607D01*
X192273D01*
X189734Y703068D01*
Y692911D01*
X192273Y690372D01*
X197351D01*
X199891Y692911D01*
X204969Y690372D02*
X210047D01*
X207508D01*
Y705607D01*
X204969Y703068D01*
X857758Y665221D02*
Y649986D01*
X865376D01*
X867915Y652525D01*
Y662682D01*
X865376Y665221D01*
X857758D01*
X883150Y649986D02*
X872993D01*
X883150Y660143D01*
Y662682D01*
X880611Y665221D01*
X875532D01*
X872993Y662682D01*
X855218Y724911D02*
Y709676D01*
X862835D01*
X865375Y712215D01*
Y722372D01*
X862835Y724911D01*
X855218D01*
X870453Y709676D02*
X875531D01*
X872992D01*
Y724911D01*
X870453Y722372D01*
X731263Y109470D02*
X728724Y112009D01*
X723645D01*
X721106Y109470D01*
Y99313D01*
X723645Y96774D01*
X728724D01*
X731263Y99313D01*
X736341Y96774D02*
Y112009D01*
X746498Y96774D01*
Y112009D01*
X761733Y96774D02*
X751576D01*
X761733Y106931D01*
Y109470D01*
X759194Y112009D01*
X754115D01*
X751576Y109470D01*
X389125Y890520D02*
X386586Y893059D01*
X381507D01*
X378968Y890520D01*
Y880363D01*
X381507Y877824D01*
X386586D01*
X389125Y880363D01*
X394203Y877824D02*
Y893059D01*
X404360Y877824D01*
Y893059D01*
X409438Y877824D02*
X414516D01*
X411977D01*
Y893059D01*
X409438Y890520D01*
X685035Y475738D02*
X682495Y478277D01*
X677417D01*
X674878Y475738D01*
Y465581D01*
X677417Y463042D01*
X682495D01*
X685035Y465581D01*
X700270Y463042D02*
X690113D01*
X700270Y473199D01*
Y475738D01*
X697731Y478277D01*
X692652D01*
X690113Y475738D01*
X715505Y463042D02*
X705348D01*
X715505Y473199D01*
Y475738D01*
X712966Y478277D01*
X707887D01*
X705348Y475738D01*
X792477Y707386D02*
X789938Y709925D01*
X784859D01*
X782320Y707386D01*
Y697229D01*
X784859Y694690D01*
X789938D01*
X792477Y697229D01*
X807712Y694690D02*
X797555D01*
X807712Y704847D01*
Y707386D01*
X805173Y709925D01*
X800094D01*
X797555Y707386D01*
X812790Y694690D02*
X817868D01*
X815329D01*
Y709925D01*
X812790Y707386D01*
X791715Y573528D02*
X789175Y576067D01*
X784097D01*
X781558Y573528D01*
Y563371D01*
X784097Y560832D01*
X789175D01*
X791715Y563371D01*
X796793Y560832D02*
X801871D01*
X799332D01*
Y576067D01*
X796793Y573528D01*
X809489Y563371D02*
X812028Y560832D01*
X817106D01*
X819646Y563371D01*
Y573528D01*
X817106Y576067D01*
X812028D01*
X809489Y573528D01*
Y570989D01*
X812028Y568450D01*
X819646D01*
X490471Y243582D02*
X487932Y246121D01*
X482853D01*
X480314Y243582D01*
Y233425D01*
X482853Y230886D01*
X487932D01*
X490471Y233425D01*
X495549Y230886D02*
X500627D01*
X498088D01*
Y246121D01*
X495549Y243582D01*
X508245D02*
X510784Y246121D01*
X515863D01*
X518402Y243582D01*
Y241043D01*
X515863Y238503D01*
X518402Y235964D01*
Y233425D01*
X515863Y230886D01*
X510784D01*
X508245Y233425D01*
Y235964D01*
X510784Y238503D01*
X508245Y241043D01*
Y243582D01*
X510784Y238503D02*
X515863D01*
X394205Y747772D02*
X391665Y750311D01*
X386587D01*
X384048Y747772D01*
Y737615D01*
X386587Y735076D01*
X391665D01*
X394205Y737615D01*
X399283Y735076D02*
X404361D01*
X401822D01*
Y750311D01*
X399283Y747772D01*
X411979Y750311D02*
X422136D01*
Y747772D01*
X411979Y737615D01*
Y735076D01*
X416811Y345182D02*
X414272Y347721D01*
X409193D01*
X406654Y345182D01*
Y335025D01*
X409193Y332486D01*
X414272D01*
X416811Y335025D01*
X421889Y332486D02*
X426967D01*
X424428D01*
Y347721D01*
X421889Y345182D01*
X444742Y347721D02*
X439663Y345182D01*
X434585Y340103D01*
Y335025D01*
X437124Y332486D01*
X442202D01*
X444742Y335025D01*
Y337564D01*
X442202Y340103D01*
X434585D01*
X619757Y611882D02*
X617217Y614421D01*
X612139D01*
X609600Y611882D01*
Y601725D01*
X612139Y599186D01*
X617217D01*
X619757Y601725D01*
X624835Y599186D02*
X629913D01*
X627374D01*
Y614421D01*
X624835Y611882D01*
X645148Y599186D02*
Y614421D01*
X637531Y606804D01*
X647688D01*
X71371Y884932D02*
X68832Y887471D01*
X63753D01*
X61214Y884932D01*
Y874775D01*
X63753Y872236D01*
X68832D01*
X71371Y874775D01*
X76449Y872236D02*
X81527D01*
X78988D01*
Y887471D01*
X76449Y884932D01*
X89145Y872236D02*
X94223D01*
X91684D01*
Y887471D01*
X89145Y884932D01*
X291081Y306828D02*
X288542Y309367D01*
X283463D01*
X280924Y306828D01*
Y296671D01*
X283463Y294132D01*
X288542D01*
X291081Y296671D01*
X296159Y294132D02*
X301237D01*
X298698D01*
Y309367D01*
X296159Y306828D01*
X308855D02*
X311394Y309367D01*
X316472D01*
X319012Y306828D01*
Y296671D01*
X316472Y294132D01*
X311394D01*
X308855Y296671D01*
Y306828D01*
X51559Y374138D02*
X49019Y376677D01*
X43941D01*
X41402Y374138D01*
Y363981D01*
X43941Y361442D01*
X49019D01*
X51559Y363981D01*
X56637D02*
X59176Y361442D01*
X64255D01*
X66794Y363981D01*
Y374138D01*
X64255Y376677D01*
X59176D01*
X56637Y374138D01*
Y371599D01*
X59176Y369059D01*
X66794D01*
X223771Y768092D02*
X221231Y770631D01*
X216153D01*
X213614Y768092D01*
Y757935D01*
X216153Y755396D01*
X221231D01*
X223771Y757935D01*
X228849Y768092D02*
X231388Y770631D01*
X236467D01*
X239006Y768092D01*
Y765553D01*
X236467Y763014D01*
X239006Y760474D01*
Y757935D01*
X236467Y755396D01*
X231388D01*
X228849Y757935D01*
Y760474D01*
X231388Y763014D01*
X228849Y765553D01*
Y768092D01*
X231388Y763014D02*
X236467D01*
X53591Y529332D02*
X51052Y531871D01*
X45973D01*
X43434Y529332D01*
Y519175D01*
X45973Y516636D01*
X51052D01*
X53591Y519175D01*
X68826Y531871D02*
X63747Y529332D01*
X58669Y524254D01*
Y519175D01*
X61208Y516636D01*
X66287D01*
X68826Y519175D01*
Y521714D01*
X66287Y524254D01*
X58669D01*
X292351Y706878D02*
X289811Y709417D01*
X284733D01*
X282194Y706878D01*
Y696721D01*
X284733Y694182D01*
X289811D01*
X292351Y696721D01*
X307586Y709417D02*
X297429D01*
Y701799D01*
X302507Y704339D01*
X305047D01*
X307586Y701799D01*
Y696721D01*
X305047Y694182D01*
X299968D01*
X297429Y696721D01*
X329435Y571242D02*
X326895Y573781D01*
X321817D01*
X319278Y571242D01*
Y561085D01*
X321817Y558546D01*
X326895D01*
X329435Y561085D01*
X344670Y558546D02*
X334513D01*
X344670Y568703D01*
Y571242D01*
X342131Y573781D01*
X337052D01*
X334513Y571242D01*
X54099Y292096D02*
X51560Y294635D01*
X46481D01*
X43942Y292096D01*
Y281939D01*
X46481Y279400D01*
X51560D01*
X54099Y281939D01*
X59177Y279400D02*
X64255D01*
X61716D01*
Y294635D01*
X59177Y292096D01*
D13*
X906850Y796850D02*
Y871850D01*
X706850D02*
X906850D01*
X706850Y796850D02*
Y871850D01*
Y796850D02*
X906850D01*
X189230Y681680D02*
X252730D01*
X189230Y585780D02*
X252730D01*
Y681680D01*
X189230Y585780D02*
Y681680D01*
X271470Y377520D02*
Y441020D01*
X175570Y377520D02*
Y441020D01*
Y377520D02*
X271470D01*
X175570Y441020D02*
X271470D01*
X186690Y185730D02*
X250190D01*
X186690Y281630D02*
X250190D01*
X186690Y185730D02*
Y281630D01*
X250190Y185730D02*
Y281630D01*
X524180Y603560D02*
X587680D01*
X524180Y699460D02*
X587680D01*
X524180Y603560D02*
Y699460D01*
X587680Y603560D02*
Y699460D01*
X582620Y385140D02*
Y448640D01*
X486720Y385140D02*
Y448640D01*
Y385140D02*
X582620D01*
X486720Y448640D02*
X582620D01*
X787710Y259080D02*
Y322580D01*
X883610Y259080D02*
Y322580D01*
X787710D02*
X883610D01*
X787710Y259080D02*
X883610D01*
M02*
