G04*
G04 #@! TF.GenerationSoftware,Altium Limited,Altium Designer,21.2.0 (30)*
G04*
G04 Layer_Color=16711935*
%FSLAX44Y44*%
%MOMM*%
G71*
G04*
G04 #@! TF.SameCoordinates,A6CD76A2-BFCB-4AF9-B6D0-9A86C89395A1*
G04*
G04*
G04 #@! TF.FilePolarity,Positive*
G04*
G01*
G75*
%ADD11C,0.2000*%
%ADD12C,0.2540*%
%ADD13C,0.1270*%
D11*
X115719Y302640D02*
G03*
X116910Y352708I1191J25020D01*
G01*
X66031Y352680D02*
G03*
X64840Y302612I-1191J-25020D01*
G01*
X999925Y745999D02*
Y852887D01*
X999858Y745931D02*
X999925Y745999D01*
X924269Y745931D02*
X999858D01*
X923775Y746425D02*
X924269Y745931D01*
X923775Y746425D02*
Y852718D01*
X923971Y852914D01*
X999897D01*
X707207Y796907D02*
X906633D01*
X707207D02*
Y798177D01*
Y870603D01*
X706590Y871220D02*
X707207Y870603D01*
X706590Y871220D02*
X907250D01*
Y796290D02*
Y871220D01*
X252013Y876735D02*
X358901D01*
X358969Y876668D01*
Y801079D02*
Y876668D01*
X358475Y800585D02*
X358969Y801079D01*
X252182Y800585D02*
X358475D01*
X251986Y800781D02*
X252182Y800585D01*
X251986Y800781D02*
Y876707D01*
X312413Y89335D02*
X419301D01*
X419369Y89268D01*
Y13679D02*
Y89268D01*
X418875Y13185D02*
X419369Y13679D01*
X312582Y13185D02*
X418875D01*
X312386Y13381D02*
X312582Y13185D01*
X312386Y13381D02*
Y89307D01*
X377590Y792480D02*
Y868680D01*
Y792480D02*
X479190D01*
Y868680D01*
X377590D02*
X479190D01*
X719690Y11430D02*
Y87630D01*
Y11430D02*
X821290D01*
Y87630D01*
X719690D02*
X821290D01*
X678180Y165100D02*
Y218440D01*
Y165100D02*
X751840D01*
Y218440D01*
X678180D02*
X751840D01*
X675640Y256540D02*
Y309880D01*
Y256540D02*
X749300D01*
Y309880D01*
X675640D02*
X749300D01*
X900460Y689610D02*
Y701040D01*
X871250D02*
X900460D01*
X871250Y689610D02*
Y701040D01*
X868710Y689610D02*
X871250D01*
X868710D02*
X871250D01*
Y678180D02*
Y689610D01*
Y678180D02*
X900460D01*
Y689610D01*
X903000D01*
X902970Y629920D02*
Y641350D01*
X873760D02*
X902970D01*
X873760Y629920D02*
Y641350D01*
X871220Y629920D02*
X873760D01*
X871220D02*
X873760D01*
Y618490D02*
Y629920D01*
Y618490D02*
X902970D01*
Y629920D01*
X905510D01*
X64840Y302612D02*
X115690D01*
X66031Y352680D02*
X116882D01*
X654050Y208280D02*
Y419100D01*
X591820Y208280D02*
X654050D01*
X591820D02*
Y419100D01*
X654050D01*
D12*
X977822Y842160D02*
G03*
X977822Y842160I-1192J0D01*
G01*
X263932Y853440D02*
G03*
X263932Y853440I-1192J0D01*
G01*
X324333Y66040D02*
G03*
X324333Y66040I-1192J0D01*
G01*
X885943Y499110D02*
G03*
X885943Y499110I-52823J0D01*
G01*
X779263Y401320D02*
G03*
X779263Y401320I-52823J0D01*
G01*
X849536Y651510D02*
G03*
X849536Y651510I-34196J0D01*
G01*
X900430Y392190D02*
G03*
X900430Y392190I-22860J0D01*
G01*
X689610Y207010D02*
G03*
X689610Y207010I-1270J0D01*
G01*
X687070Y298450D02*
G03*
X687070Y298450I-1270J0D01*
G01*
X897920Y689610D02*
G03*
X897920Y689610I-1270J0D01*
G01*
X900430Y629920D02*
G03*
X900430Y629920I-1270J0D01*
G01*
X394046Y496755D02*
G03*
X395370Y549758I1324J26485D01*
G01*
X345894Y549725D02*
G03*
X344570Y496722I-1324J-26485D01*
G01*
X280855Y609254D02*
G03*
X333858Y607930I26485J-1324D01*
G01*
X333825Y657406D02*
G03*
X280822Y658730I-26485J1324D01*
G01*
X69904Y507815D02*
G03*
X68580Y454812I-1324J-26485D01*
G01*
X118056Y454845D02*
G03*
X119380Y507848I1324J26485D01*
G01*
X279585Y209204D02*
G03*
X332588Y207880I26485J-1324D01*
G01*
X332555Y257356D02*
G03*
X279552Y258680I-26485J1324D01*
G01*
X135836Y810445D02*
G03*
X137160Y863448I1324J26485D01*
G01*
X87684Y863415D02*
G03*
X86360Y810412I-1324J-26485D01*
G01*
X433124Y323665D02*
G03*
X431800Y270662I-1324J-26485D01*
G01*
X481276Y270695D02*
G03*
X482600Y323698I1324J26485D01*
G01*
X458816Y673285D02*
G03*
X460140Y726288I1324J26485D01*
G01*
X410664Y726255D02*
G03*
X409340Y673252I-1324J-26485D01*
G01*
X142343Y606436D02*
G03*
X142343Y606436I-54713J0D01*
G01*
Y730896D02*
G03*
X142343Y730896I-54713J0D01*
G01*
X765043Y675640D02*
G03*
X765043Y675640I-54713J0D01*
G01*
X247650Y594360D02*
G03*
X247650Y594360I-1270J0D01*
G01*
X185420Y383870D02*
G03*
X185420Y383870I-1270J0D01*
G01*
X194310Y273050D02*
G03*
X194310Y273050I-1270J0D01*
G01*
X531800Y690880D02*
G03*
X531800Y690880I-1270J0D01*
G01*
X496570Y391490D02*
G03*
X496570Y391490I-1270J0D01*
G01*
X876300Y316230D02*
G03*
X876300Y316230I-1270J0D01*
G01*
X258689Y722630D02*
G03*
X258689Y722630I-22469J0D01*
G01*
X654709Y566420D02*
G03*
X654709Y566420I-22469J0D01*
G01*
X525389Y198120D02*
G03*
X525389Y198120I-22469J0D01*
G01*
X162183Y210820D02*
G03*
X162183Y210820I-59703J0D01*
G01*
X158373Y71120D02*
G03*
X158373Y71120I-59703J0D01*
G01*
X675264Y814070D02*
G03*
X675264Y814070I-59703J0D01*
G01*
X50800Y393700D02*
Y419100D01*
Y393700D02*
X137160D01*
Y419100D01*
X50800D02*
X137160D01*
X258040Y320040D02*
Y345440D01*
X171680D02*
X258040D01*
X171680Y320040D02*
Y345440D01*
Y320040D02*
X258040D01*
X171220Y469900D02*
Y495300D01*
Y469900D02*
X257580D01*
Y495300D01*
X171220D02*
X257580D01*
X496570Y25170D02*
X521970D01*
Y111530D01*
X496570D02*
X521970D01*
X496570Y25170D02*
Y111530D01*
X359410Y567460D02*
X384810D01*
Y653820D01*
X359410D02*
X384810D01*
X359410Y567460D02*
Y653820D01*
X203200Y785900D02*
X228600D01*
Y872260D01*
X203200D02*
X228600D01*
X203200Y785900D02*
Y872260D01*
X256770Y527050D02*
Y552450D01*
X170410D02*
X256770D01*
X170410Y527050D02*
Y552450D01*
Y527050D02*
X256770D01*
X281710Y726440D02*
Y751840D01*
Y726440D02*
X368070D01*
Y751840D01*
X281710D02*
X368070D01*
X360680Y189000D02*
X386080D01*
Y275360D01*
X360680D02*
X386080D01*
X360680Y189000D02*
Y275360D01*
X322580Y373150D02*
X347980D01*
Y459510D01*
X322580D02*
X347980D01*
X322580Y373150D02*
Y459510D01*
X263930Y127000D02*
Y152400D01*
Y127000D02*
X350290D01*
Y152400D01*
X263930D02*
X350290D01*
X197249Y12590D02*
X222649D01*
Y98950D01*
X197249D02*
X222649D01*
X197249Y12590D02*
Y98950D01*
X377190Y374420D02*
X402590D01*
Y460780D01*
X377190D02*
X402590D01*
X377190Y374420D02*
Y460780D01*
X835890Y730250D02*
Y755650D01*
X749530D02*
X835890D01*
X749530Y730250D02*
Y755650D01*
Y730250D02*
X835890D01*
X542290Y560070D02*
Y585470D01*
X455930D02*
X542290D01*
X455930Y560070D02*
Y585470D01*
Y560070D02*
X542290D01*
X520930Y737870D02*
Y763270D01*
X434570D02*
X520930D01*
X434570Y737870D02*
Y763270D01*
Y737870D02*
X520930D01*
X502920Y870180D02*
X528320D01*
X502920Y783820D02*
Y870180D01*
Y783820D02*
X528320D01*
Y870180D01*
X541250Y499110D02*
Y524510D01*
X454890D02*
X541250D01*
X454890Y499110D02*
Y524510D01*
Y499110D02*
X541250D01*
X434340Y461010D02*
X459740D01*
X434340Y374650D02*
Y461010D01*
Y374650D02*
X459740D01*
Y461010D01*
X571500Y23900D02*
X596900D01*
Y110260D01*
X571500D02*
X596900D01*
X571500Y23900D02*
Y110260D01*
X393470Y140970D02*
Y166370D01*
Y140970D02*
X479830D01*
Y166370D01*
X393470D02*
X479830D01*
X675640Y562610D02*
Y588010D01*
Y562610D02*
X762000D01*
Y588010D01*
X675640D02*
X762000D01*
X647700Y23900D02*
X673100D01*
Y110260D01*
X647700D02*
X673100D01*
X647700Y23900D02*
Y110260D01*
X858520Y98020D02*
X883920D01*
X858520Y11660D02*
Y98020D01*
Y11660D02*
X883920D01*
Y98020D01*
X771930Y166370D02*
Y191770D01*
Y166370D02*
X858290D01*
Y191770D01*
X771930D02*
X858290D01*
X675640Y500380D02*
Y525780D01*
Y500380D02*
X762000D01*
Y525780D01*
X675640D02*
X762000D01*
X344603Y496755D02*
X394046D01*
X345927Y549758D02*
X395370D01*
X280855Y609254D02*
Y658697D01*
X333858Y607930D02*
Y657373D01*
X69904Y507815D02*
X119347D01*
X68580Y454812D02*
X118023D01*
X279585Y209204D02*
Y258647D01*
X332588Y207880D02*
Y257323D01*
X86393Y810445D02*
X135836D01*
X87717Y863448D02*
X137160D01*
X433124Y323665D02*
X482567D01*
X431800Y270662D02*
X481243D01*
X409373Y673285D02*
X458816D01*
X410697Y726288D02*
X460140D01*
X59297Y69846D02*
X56757Y72385D01*
X51679D01*
X49140Y69846D01*
Y59689D01*
X51679Y57150D01*
X56757D01*
X59297Y59689D01*
X64375Y57150D02*
X69453D01*
X66914D01*
Y72385D01*
X64375Y69846D01*
X87228Y57150D02*
X77071D01*
X87228Y67307D01*
Y69846D01*
X84689Y72385D01*
X79610D01*
X77071Y69846D01*
X576187Y812796D02*
X573647Y815335D01*
X568569D01*
X566030Y812796D01*
Y802639D01*
X568569Y800100D01*
X573647D01*
X576187Y802639D01*
X581265Y800100D02*
X586343D01*
X583804D01*
Y815335D01*
X581265Y812796D01*
X593961D02*
X596500Y815335D01*
X601578D01*
X604118Y812796D01*
Y810257D01*
X601578Y807718D01*
X599039D01*
X601578D01*
X604118Y805178D01*
Y802639D01*
X601578Y800100D01*
X596500D01*
X593961Y802639D01*
X63107Y209546D02*
X60567Y212085D01*
X55489D01*
X52950Y209546D01*
Y199389D01*
X55489Y196850D01*
X60567D01*
X63107Y199389D01*
X68185Y196850D02*
X73263D01*
X70724D01*
Y212085D01*
X68185Y209546D01*
X400453Y523244D02*
X402993Y520705D01*
X408071D01*
X410610Y523244D01*
Y533401D01*
X408071Y535940D01*
X402993D01*
X400453Y533401D01*
X385218Y535940D02*
X395375D01*
X385218Y525783D01*
Y523244D01*
X387757Y520705D01*
X392836D01*
X395375Y523244D01*
X307344Y602847D02*
X304805Y600308D01*
Y595229D01*
X307344Y592690D01*
X317501D01*
X320040Y595229D01*
Y600308D01*
X317501Y602847D01*
X304805Y618082D02*
Y607925D01*
X312423D01*
X309883Y613003D01*
Y615543D01*
X312423Y618082D01*
X317501D01*
X320040Y615543D01*
Y610464D01*
X317501Y607925D01*
X63497Y481326D02*
X60957Y483865D01*
X55879D01*
X53340Y481326D01*
Y471169D01*
X55879Y468630D01*
X60957D01*
X63497Y471169D01*
X78732Y483865D02*
X73653Y481326D01*
X68575Y476247D01*
Y471169D01*
X71114Y468630D01*
X76193D01*
X78732Y471169D01*
Y473708D01*
X76193Y476247D01*
X68575D01*
X306074Y202797D02*
X303535Y200257D01*
Y195179D01*
X306074Y192640D01*
X316231D01*
X318770Y195179D01*
Y200257D01*
X316231Y202797D01*
X318770Y207875D02*
Y212953D01*
Y210414D01*
X303535D01*
X306074Y207875D01*
Y220571D02*
X303535Y223110D01*
Y228188D01*
X306074Y230728D01*
X316231D01*
X318770Y228188D01*
Y223110D01*
X316231Y220571D01*
X306074D01*
X142243Y836934D02*
X144782Y834395D01*
X149861D01*
X152400Y836934D01*
Y847091D01*
X149861Y849630D01*
X144782D01*
X142243Y847091D01*
X137165Y849630D02*
X132087D01*
X134626D01*
Y834395D01*
X137165Y836934D01*
X124469Y849630D02*
X119391D01*
X121930D01*
Y834395D01*
X124469Y836934D01*
X426717Y297176D02*
X424178Y299715D01*
X419099D01*
X416560Y297176D01*
Y287019D01*
X419099Y284480D01*
X424178D01*
X426717Y287019D01*
X431795Y284480D02*
X436873D01*
X434334D01*
Y299715D01*
X431795Y297176D01*
X454648Y299715D02*
X449569Y297176D01*
X444491Y292097D01*
Y287019D01*
X447030Y284480D01*
X452108D01*
X454648Y287019D01*
Y289558D01*
X452108Y292097D01*
X444491D01*
X465223Y699774D02*
X467762Y697235D01*
X472841D01*
X475380Y699774D01*
Y709931D01*
X472841Y712470D01*
X467762D01*
X465223Y709931D01*
X460145Y712470D02*
X455067D01*
X457606D01*
Y697235D01*
X460145Y699774D01*
X447449Y697235D02*
X437292D01*
Y699774D01*
X447449Y709931D01*
Y712470D01*
D13*
X252730Y585470D02*
Y681990D01*
X189230D02*
X252730D01*
X189230Y585470D02*
Y681990D01*
Y585470D02*
X252730D01*
X175260Y377520D02*
X271780D01*
Y441020D01*
X175260D02*
X271780D01*
X175260Y377520D02*
Y441020D01*
X186690Y185420D02*
Y281940D01*
Y185420D02*
X250190D01*
Y281940D01*
X186690D02*
X250190D01*
X524180Y603250D02*
Y699770D01*
Y603250D02*
X587680D01*
Y699770D01*
X524180D02*
X587680D01*
X486410Y385140D02*
X582930D01*
Y448640D01*
X486410D02*
X582930D01*
X486410Y385140D02*
Y448640D01*
X787400Y322580D02*
X883920D01*
X787400Y259080D02*
Y322580D01*
Y259080D02*
X883920D01*
Y322580D01*
M02*
