G04*
G04 #@! TF.GenerationSoftware,Altium Limited,Altium Designer,21.2.0 (30)*
G04*
G04 Layer_Color=32896*
%FSLAX44Y44*%
%MOMM*%
G71*
G04*
G04 #@! TF.SameCoordinates,A6CD76A2-BFCB-4AF9-B6D0-9A86C89395A1*
G04*
G04*
G04 #@! TF.FilePolarity,Positive*
G04*
G01*
G75*
%ADD12C,0.2540*%
D12*
X955035Y463550D02*
X939800D01*
Y471167D01*
X942339Y473707D01*
X952496D01*
X955035Y471167D01*
Y463550D01*
Y478785D02*
Y483863D01*
Y481324D01*
X939800D01*
Y478785D01*
Y483863D01*
Y491481D02*
X955035D01*
X939800Y501638D01*
X955035D01*
Y506716D02*
X939800D01*
Y514334D01*
X942339Y516873D01*
X952496D01*
X955035Y514334D01*
Y506716D01*
Y521951D02*
Y527029D01*
Y524490D01*
X939800D01*
Y521951D01*
Y527029D01*
X952496Y544804D02*
X955035Y542265D01*
Y537186D01*
X952496Y534647D01*
X942339D01*
X939800Y537186D01*
Y542265D01*
X942339Y544804D01*
X947418D01*
Y539725D01*
X955035Y549882D02*
X942339D01*
X939800Y552421D01*
Y557500D01*
X942339Y560039D01*
X955035D01*
Y565117D02*
X939800D01*
Y575274D01*
X974090Y461010D02*
X989325D01*
Y468628D01*
X986786Y471167D01*
X981708D01*
X979168Y468628D01*
Y461010D01*
X986786Y486402D02*
X989325Y483863D01*
Y478784D01*
X986786Y476245D01*
X984247D01*
X981708Y478784D01*
Y483863D01*
X979168Y486402D01*
X976629D01*
X974090Y483863D01*
Y478784D01*
X976629Y476245D01*
X974090Y491480D02*
X989325D01*
X974090Y501637D01*
X989325D01*
X974090Y506715D02*
X984247D01*
X989325Y511794D01*
X984247Y516872D01*
X974090D01*
X981708D01*
Y506715D01*
X986786Y547342D02*
X989325Y544803D01*
Y539725D01*
X986786Y537185D01*
X976629D01*
X974090Y539725D01*
Y544803D01*
X976629Y547342D01*
X989325Y562577D02*
Y552420D01*
X974090D01*
Y562577D01*
X981708Y552420D02*
Y557499D01*
X989325Y567655D02*
Y577812D01*
Y572734D01*
X974090D01*
X1022345Y384807D02*
Y374650D01*
X1007110D01*
Y384807D01*
X1014727Y374650D02*
Y379728D01*
X1022345Y389885D02*
X1007110D01*
Y400042D01*
X1022345Y415277D02*
Y405120D01*
X1007110D01*
Y415277D01*
X1014727Y405120D02*
Y410199D01*
X1019806Y430512D02*
X1022345Y427973D01*
Y422894D01*
X1019806Y420355D01*
X1009649D01*
X1007110Y422894D01*
Y427973D01*
X1009649Y430512D01*
X1022345Y435590D02*
Y445747D01*
Y440669D01*
X1007110D01*
Y450825D02*
X1022345D01*
Y458443D01*
X1019806Y460982D01*
X1014727D01*
X1012188Y458443D01*
Y450825D01*
Y455904D02*
X1007110Y460982D01*
X1022345Y473678D02*
Y468600D01*
X1019806Y466060D01*
X1009649D01*
X1007110Y468600D01*
Y473678D01*
X1009649Y476217D01*
X1019806D01*
X1022345Y473678D01*
X1007110Y481296D02*
X1022345D01*
X1007110Y491452D01*
X1022345D01*
Y496531D02*
Y501609D01*
Y499070D01*
X1007110D01*
Y496531D01*
Y501609D01*
X1019806Y519383D02*
X1022345Y516844D01*
Y511766D01*
X1019806Y509226D01*
X1009649D01*
X1007110Y511766D01*
Y516844D01*
X1009649Y519383D01*
X1022345Y549853D02*
Y539697D01*
X1007110D01*
Y549853D01*
X1014727Y539697D02*
Y544775D01*
X1007110Y554932D02*
X1022345D01*
X1007110Y565088D01*
X1022345D01*
X1019806Y580323D02*
X1022345Y577784D01*
Y572706D01*
X1019806Y570167D01*
X1009649D01*
X1007110Y572706D01*
Y577784D01*
X1009649Y580323D01*
X1014727D01*
Y575245D01*
X1022345Y585402D02*
Y590480D01*
Y587941D01*
X1007110D01*
Y585402D01*
Y590480D01*
Y598098D02*
X1022345D01*
X1007110Y608254D01*
X1022345D01*
Y623489D02*
Y613333D01*
X1007110D01*
Y623489D01*
X1014727Y613333D02*
Y618411D01*
X1022345Y638725D02*
Y628568D01*
X1007110D01*
Y638725D01*
X1014727Y628568D02*
Y633646D01*
X1007110Y643803D02*
X1022345D01*
Y651421D01*
X1019806Y653960D01*
X1014727D01*
X1012188Y651421D01*
Y643803D01*
Y648881D02*
X1007110Y653960D01*
X1054094Y441960D02*
Y452117D01*
Y447038D01*
X1038859D01*
X1054094Y457195D02*
X1038859D01*
X1046477D01*
Y467352D01*
X1054094D01*
X1038859D01*
X1054094Y472430D02*
Y477509D01*
Y474969D01*
X1038859D01*
Y472430D01*
Y477509D01*
Y485126D02*
X1054094D01*
Y492744D01*
X1051555Y495283D01*
X1046477D01*
X1043938Y492744D01*
Y485126D01*
Y490204D02*
X1038859Y495283D01*
X1054094Y500361D02*
X1041398D01*
X1038859Y502900D01*
Y507979D01*
X1041398Y510518D01*
X1054094D01*
X1038859Y515596D02*
X1054094D01*
Y523214D01*
X1051555Y525753D01*
X1046477D01*
X1043938Y523214D01*
Y515596D01*
X1038859Y530831D02*
X1049016D01*
X1054094Y535910D01*
X1049016Y540988D01*
X1038859D01*
X1046477D01*
Y530831D01*
X1054094Y546066D02*
Y556223D01*
Y551145D01*
X1038859D01*
X1054094Y561301D02*
X1038859D01*
X1046477D01*
Y571458D01*
X1054094D01*
X1038859D01*
X1054094Y576536D02*
Y581615D01*
Y579076D01*
X1038859D01*
Y576536D01*
Y581615D01*
X1036320Y589232D02*
Y599389D01*
X1038859Y604467D02*
X1054094D01*
X1038859Y614624D01*
X1054094D01*
X1084575Y287020D02*
X1069340D01*
Y294638D01*
X1071879Y297177D01*
X1074418D01*
X1076957Y294638D01*
Y287020D01*
Y294638D01*
X1079497Y297177D01*
X1082036D01*
X1084575Y294638D01*
Y287020D01*
X1069340Y302255D02*
X1079497D01*
X1084575Y307333D01*
X1079497Y312412D01*
X1069340D01*
X1076957D01*
Y302255D01*
X1084575Y317490D02*
X1069340D01*
Y327647D01*
Y332725D02*
X1079497D01*
X1084575Y337804D01*
X1079497Y342882D01*
X1069340D01*
X1076957D01*
Y332725D01*
X1069340Y347960D02*
X1084575D01*
X1069340Y358117D01*
X1084575D01*
X1082036Y373352D02*
X1084575Y370813D01*
Y365734D01*
X1082036Y363195D01*
X1071879D01*
X1069340Y365734D01*
Y370813D01*
X1071879Y373352D01*
X1084575Y388587D02*
Y378430D01*
X1069340D01*
Y388587D01*
X1076957Y378430D02*
Y383509D01*
X1084575Y393666D02*
X1069340D01*
Y401283D01*
X1071879Y403822D01*
X1082036D01*
X1084575Y401283D01*
Y393666D01*
X1069340Y424136D02*
X1079497Y434292D01*
X1084575Y454606D02*
X1071879D01*
X1069340Y457145D01*
Y462223D01*
X1071879Y464762D01*
X1084575D01*
X1069340Y469841D02*
X1084575D01*
X1069340Y479998D01*
X1084575D01*
Y485076D02*
X1069340D01*
Y492693D01*
X1071879Y495233D01*
X1074418D01*
X1076957Y492693D01*
Y485076D01*
Y492693D01*
X1079497Y495233D01*
X1082036D01*
X1084575Y492693D01*
Y485076D01*
X1069340Y500311D02*
X1079497D01*
X1084575Y505389D01*
X1079497Y510468D01*
X1069340D01*
X1076957D01*
Y500311D01*
X1084575Y515546D02*
X1069340D01*
Y525703D01*
Y530781D02*
X1079497D01*
X1084575Y535859D01*
X1079497Y540938D01*
X1069340D01*
X1076957D01*
Y530781D01*
X1069340Y546016D02*
X1084575D01*
X1069340Y556173D01*
X1084575D01*
X1082036Y571408D02*
X1084575Y568869D01*
Y563791D01*
X1082036Y561251D01*
X1071879D01*
X1069340Y563791D01*
Y568869D01*
X1071879Y571408D01*
X1084575Y586643D02*
Y576486D01*
X1069340D01*
Y586643D01*
X1076957Y576486D02*
Y581565D01*
X1084575Y591721D02*
X1069340D01*
Y599339D01*
X1071879Y601878D01*
X1082036D01*
X1084575Y599339D01*
Y591721D01*
X1082036Y632348D02*
X1084575Y629809D01*
Y624731D01*
X1082036Y622192D01*
X1071879D01*
X1069340Y624731D01*
Y629809D01*
X1071879Y632348D01*
X1084575Y645044D02*
Y639966D01*
X1082036Y637427D01*
X1071879D01*
X1069340Y639966D01*
Y645044D01*
X1071879Y647583D01*
X1082036D01*
X1084575Y645044D01*
X1069340Y652662D02*
X1084575D01*
X1069340Y662819D01*
X1084575D01*
Y667897D02*
X1074418D01*
X1069340Y672975D01*
X1074418Y678054D01*
X1084575D01*
Y693289D02*
Y683132D01*
X1069340D01*
Y693289D01*
X1076957Y683132D02*
Y688210D01*
X1069340Y698367D02*
X1084575D01*
Y705984D01*
X1082036Y708524D01*
X1076957D01*
X1074418Y705984D01*
Y698367D01*
Y703445D02*
X1069340Y708524D01*
X1084575Y713602D02*
Y723759D01*
Y718680D01*
X1069340D01*
X1084575Y738994D02*
Y728837D01*
X1069340D01*
Y738994D01*
X1076957Y728837D02*
Y733915D01*
X1069340Y744072D02*
X1084575D01*
Y751690D01*
X1082036Y754229D01*
X1076957D01*
X1074418Y751690D01*
Y744072D01*
Y749150D02*
X1069340Y754229D01*
M02*
