G04*
G04 #@! TF.GenerationSoftware,Altium Limited,Altium Designer,21.2.0 (30)*
G04*
G04 Layer_Physical_Order=2*
G04 Layer_Color=16711680*
%FSLAX44Y44*%
%MOMM*%
G71*
G04*
G04 #@! TF.SameCoordinates,A6CD76A2-BFCB-4AF9-B6D0-9A86C89395A1*
G04*
G04*
G04 #@! TF.FilePolarity,Positive*
G04*
G01*
G75*
%ADD12C,0.2540*%
%ADD21C,1.9500*%
%ADD22C,1.2000*%
%ADD23R,1.9500X1.9500*%
%ADD24C,1.1300*%
%ADD25R,1.1300X1.1300*%
%ADD26R,1.1300X1.1300*%
%ADD27C,1.2700*%
D12*
X883120Y833120D02*
X915670D01*
X881850Y831850D02*
X883120Y833120D01*
X827000Y744220D02*
Y745510D01*
Y742950D02*
Y744220D01*
X975360Y651510D02*
Y716062D01*
X968792Y722630D02*
X975360Y716062D01*
X904240Y580390D02*
X975360Y651510D01*
X815340Y664210D02*
X944880D01*
X965200Y684530D01*
X904240Y83820D02*
Y580390D01*
X365760Y48260D02*
X393065Y20955D01*
X831850Y11430D02*
X904240Y83820D01*
X411229Y11430D02*
X831850D01*
X393065Y20955D02*
X401704D01*
X411229Y11430D01*
X411023Y18820D02*
X712240D01*
X726210Y32790D01*
X383540Y46303D02*
X411023Y18820D01*
X383540Y46303D02*
Y65822D01*
X726210Y32790D02*
X745490Y52070D01*
X660400Y32790D02*
X726210D01*
X509270Y34060D02*
X509905Y33425D01*
X583565D02*
X584200Y32790D01*
X509905Y33425D02*
X583565D01*
X495070Y48260D02*
X509270Y34060D01*
X400760Y48260D02*
X495070D01*
X606733Y32790D02*
X749420Y175477D01*
Y210174D01*
X584200Y32790D02*
X606733D01*
X383540Y65822D02*
X385028Y67310D01*
X594360D01*
X893160Y746240D02*
X893910Y745490D01*
X893160Y746240D02*
Y755300D01*
X862330Y786130D02*
X893160Y755300D01*
X867410Y815467D02*
Y854710D01*
X842010Y850900D02*
X862330Y830580D01*
X854710Y867410D02*
X867410Y854710D01*
Y815467D02*
X896897Y785980D01*
X862330Y786130D02*
Y830580D01*
X781850Y831850D02*
X800900Y850900D01*
X842010D01*
X700170Y767480D02*
X753110Y820420D01*
X762000Y867410D02*
X854710D01*
X753110Y858520D02*
X762000Y867410D01*
X753110Y820420D02*
Y858520D01*
X747716Y823466D02*
Y868802D01*
X742540Y818290D02*
X747716Y823466D01*
X752892Y873978D02*
X753110Y873760D01*
X747716Y868802D02*
X752892Y873978D01*
X753110Y873760D02*
X866140D01*
X881850Y858050D01*
Y831850D02*
Y858050D01*
X739140Y880110D02*
X895350D01*
Y878863D02*
X953233Y820980D01*
X895350Y878863D02*
Y880110D01*
X953233Y820980D02*
X956587D01*
X731850Y872820D02*
X739140Y880110D01*
X731850Y831850D02*
Y872820D01*
X831850Y750360D02*
Y831850D01*
X827000Y745510D02*
X831850Y750360D01*
X896897Y785980D02*
X964467D01*
X958850Y834540D02*
X977490Y815900D01*
X968792Y722630D02*
X977490Y731328D01*
X956587Y820980D02*
X972410Y805157D01*
X977490Y731328D02*
Y815900D01*
X964467Y785980D02*
X972410Y793923D01*
Y805157D01*
X362750Y873760D02*
X379260Y857250D01*
X403390Y833120D01*
X325120Y857250D02*
X379260D01*
X321310Y853440D02*
X325120Y857250D01*
X321310Y820420D02*
X396240Y745490D01*
X321310Y820420D02*
Y853440D01*
X426720Y271780D02*
X485140D01*
X614680Y401320D01*
X701040D01*
X431800Y436880D02*
X447040Y452120D01*
X431800Y297180D02*
Y436880D01*
X389890Y308610D02*
Y328930D01*
Y308610D02*
X426720Y271780D01*
X370840Y287020D02*
X398780Y259080D01*
X353060Y156210D02*
X398780Y201930D01*
Y259080D01*
X387700Y331120D02*
X389890Y328930D01*
X354150Y331120D02*
X387700D01*
X344340Y321310D02*
X354150Y331120D01*
X64840Y327660D02*
X78350Y314150D01*
Y210820D02*
Y314150D01*
X594360Y67310D02*
X699420Y172370D01*
Y259433D01*
X727710Y287723D02*
Y518160D01*
X699420Y259433D02*
X727710Y287723D01*
X684530Y561340D02*
X727710Y518160D01*
X684530Y561340D02*
Y575310D01*
Y417830D02*
Y513080D01*
Y417830D02*
X701040Y401320D01*
X558800Y513080D02*
X684530D01*
X833120Y524510D02*
X877570Y480060D01*
Y398780D02*
Y480060D01*
X822960Y251130D02*
X871220Y202870D01*
Y89130D02*
Y202870D01*
X272820Y139700D02*
X330760Y81760D01*
Y48260D02*
Y81760D01*
X303980Y21480D02*
X330760Y48260D01*
X209949Y21480D02*
X303980D01*
X170180Y185420D02*
X200612D01*
X150560Y205040D02*
X170180Y185420D01*
X201360Y337820D02*
Y382970D01*
X150560Y205040D02*
Y287020D01*
X201360Y337820D01*
X370840Y287020D02*
Y309977D01*
X291303Y230440D02*
X370840Y309977D01*
Y321310D01*
X245632Y230440D02*
X291303D01*
X200612Y185420D02*
X245632Y230440D01*
X292970Y220980D02*
X306070Y207880D01*
X258140Y220980D02*
X292970D01*
X178740Y195580D02*
X231140Y247980D01*
Y297180D01*
X261620Y327660D01*
X201360Y382970D02*
X207010Y388620D01*
X185420Y448970D02*
X196280Y438110D01*
Y362779D02*
Y438110D01*
X193611Y360110D02*
X196280Y362779D01*
X219710Y388620D02*
X292100Y461010D01*
X207010Y388620D02*
X219710D01*
X292100Y461010D02*
X372110D01*
X420370Y509270D01*
X249150Y382040D02*
X335280D01*
X248920Y382270D02*
X249150Y382040D01*
X236220Y369570D02*
X248920Y382270D01*
X335280Y382040D02*
X335915Y382675D01*
X396240Y587375D02*
X420370Y563245D01*
X396240Y587375D02*
Y745490D01*
X420370Y509270D02*
Y563245D01*
X429080Y700561D02*
Y746941D01*
X340360Y835660D02*
X429080Y746941D01*
Y700561D02*
X516230Y613410D01*
Y555650D02*
Y613410D01*
X307340Y607930D02*
X338920Y576350D01*
X372110D01*
X260680Y595630D02*
X295040D01*
X307340Y607930D01*
X247880Y539750D02*
Y608230D01*
X260680Y621030D01*
X154940Y569290D02*
X181280Y595630D01*
X154940Y383362D02*
Y569290D01*
Y383362D02*
X178192Y360110D01*
X161290Y393700D02*
Y463780D01*
X178192Y360110D02*
X193611D01*
X161290Y393700D02*
X185420Y369570D01*
X233777Y482600D02*
X254097Y502920D01*
X375050D01*
X395370Y523240D01*
X180110Y482600D02*
X233777D01*
X161290Y463780D02*
X180110Y482600D01*
X198120Y708990D02*
Y735330D01*
Y708990D02*
X260680Y646430D01*
X170180Y763270D02*
X198120Y735330D01*
X95250Y763270D02*
X170180D01*
X68580Y736600D02*
X95250Y763270D01*
X68580Y481330D02*
Y736600D01*
X511490Y750570D02*
X512040D01*
X502920Y652120D02*
Y741450D01*
Y652120D02*
X516230Y638810D01*
X460690Y699770D02*
X511490Y750570D01*
X460140Y699770D02*
X460690D01*
X87630Y670059D02*
Y720736D01*
X77820Y660249D02*
X87630Y670059D01*
X77820Y606086D02*
Y660249D01*
Y606086D02*
X87630Y596276D01*
X87953Y595953D02*
X180957D01*
X181280Y595630D01*
X87630Y596276D02*
X87953Y595953D01*
X625805Y456895D02*
X626110Y457200D01*
X572770Y456590D02*
X573075Y456895D01*
X625805D01*
X532360Y471600D02*
X547370Y456590D01*
X532360Y471600D02*
Y511810D01*
X512510Y466050D02*
X521970Y456590D01*
X447040Y452120D02*
X460970Y466050D01*
X512510D01*
X335915Y382675D02*
X389255D01*
X389890Y383310D01*
X211570Y369570D02*
X248400Y332740D01*
X249150D01*
X210820Y369570D02*
X211570D01*
X261620Y327660D02*
Y369570D01*
X306070Y207880D02*
X363390D01*
X373380Y197890D01*
X273970Y140850D02*
Y149510D01*
X272820Y139700D02*
X273970Y140850D01*
Y149510D02*
X280670Y156210D01*
X353060D01*
X446810Y198120D02*
X492760D01*
X402360Y153670D02*
X446810Y198120D01*
X781850Y242604D02*
Y831850D01*
X749420Y210174D02*
X781850Y242604D01*
X780820Y234390D02*
X797560Y251130D01*
X780820Y179070D02*
Y234390D01*
X700170Y675640D02*
Y767480D01*
X828270Y744220D02*
X866140D01*
X827000Y742950D02*
X828270Y744220D01*
X866140D02*
X867410Y745490D01*
X881850Y831850D02*
X914160Y799540D01*
X958850D01*
X815340Y664210D02*
X833120Y646430D01*
Y524510D02*
Y646430D01*
X516230Y555650D02*
X558800Y513080D01*
X620907Y566420D02*
X622080D01*
X533400Y572770D02*
X614557D01*
X620907Y566420D01*
X516230Y664210D02*
Y689610D01*
X502920Y741450D02*
X512040Y750570D01*
X215900Y794790D02*
X264490D01*
X305360Y835660D01*
X226060Y722630D02*
X242570Y739140D01*
X290600D01*
X59690Y406400D02*
X68580Y415290D01*
Y481330D01*
X59690Y403840D02*
Y406400D01*
X64840Y327660D02*
Y398690D01*
X59690Y403840D02*
X64840Y398690D01*
X261620Y369570D02*
X296080D01*
X344340Y321310D01*
X795490Y52070D02*
X832550Y89130D01*
X871220D01*
X684530Y575310D02*
Y660000D01*
X700170Y675640D01*
X686200Y689610D02*
X700170Y675640D01*
X595630Y689610D02*
X686200D01*
X575540Y814070D02*
X591430D01*
X512040Y750570D02*
X575540Y814070D01*
X487450Y833120D02*
X515620Y861290D01*
X453390Y833120D02*
X487450D01*
X720293Y824230D02*
X726233Y818290D01*
X742540D01*
X720090Y824230D02*
X720293D01*
X671830Y872490D02*
X720090Y824230D01*
X678383Y881380D02*
X727913Y831850D01*
X731850D01*
X162560Y881380D02*
X678383D01*
X442760Y872490D02*
X671830D01*
X403390Y833120D02*
X442760Y872490D01*
X120650Y839470D02*
X162560Y881380D01*
X137160Y836930D02*
X173990Y873760D01*
X362750D01*
X120650Y822960D02*
Y839470D01*
Y822960D02*
X125730Y817880D01*
X186860D01*
X204640Y835660D02*
X270360D01*
X186860Y817880D02*
X204640Y835660D01*
X893910Y745490D02*
X939800D01*
X958850Y764540D01*
X916940Y722630D02*
X968792D01*
X880037Y745490D02*
X902897Y722630D01*
X867410Y745490D02*
X880037D01*
X902897Y722630D02*
X916940D01*
X245110Y158750D02*
X258140Y171780D01*
Y195580D01*
X162170Y158750D02*
X245110D01*
X74540Y71120D02*
X162170Y158750D01*
D21*
X958850Y764540D02*
D03*
Y834540D02*
D03*
Y799540D02*
D03*
X831850Y831850D02*
D03*
X781850D02*
D03*
X731850D02*
D03*
X340360Y835660D02*
D03*
X270360D02*
D03*
X305360D02*
D03*
X400760Y48260D02*
D03*
X330760D02*
D03*
X365760D02*
D03*
X403390Y833120D02*
D03*
X453390D02*
D03*
X745490Y52070D02*
D03*
X795490D02*
D03*
D22*
X127230Y406400D02*
D03*
X59690D02*
D03*
X181610Y332740D02*
D03*
X249150D02*
D03*
X247650Y482600D02*
D03*
X180110D02*
D03*
X509270Y101600D02*
D03*
Y34060D02*
D03*
X372110Y643890D02*
D03*
Y576350D02*
D03*
X215900Y862330D02*
D03*
Y794790D02*
D03*
X180340Y539750D02*
D03*
X247880D02*
D03*
X358140Y739140D02*
D03*
X290600D02*
D03*
X373380Y265430D02*
D03*
Y197890D02*
D03*
X335280Y449580D02*
D03*
Y382040D02*
D03*
X340360Y139700D02*
D03*
X272820D02*
D03*
X209949Y89020D02*
D03*
Y21480D02*
D03*
X389890Y450850D02*
D03*
Y383310D02*
D03*
X759460Y742950D02*
D03*
X827000D02*
D03*
X465860Y572770D02*
D03*
X533400D02*
D03*
X444500Y750570D02*
D03*
X512040D02*
D03*
X515620Y793750D02*
D03*
Y861290D02*
D03*
X464820Y511810D02*
D03*
X532360D02*
D03*
X447040Y384580D02*
D03*
Y452120D02*
D03*
X584200Y100330D02*
D03*
Y32790D02*
D03*
X469900Y153670D02*
D03*
X402360D02*
D03*
X752070Y575310D02*
D03*
X684530D02*
D03*
X660400Y100330D02*
D03*
Y32790D02*
D03*
X871220Y21590D02*
D03*
Y89130D02*
D03*
X848360Y179070D02*
D03*
X780820D02*
D03*
X752070Y513080D02*
D03*
X684530D02*
D03*
X833120Y473710D02*
D03*
Y524510D02*
D03*
X751840Y401320D02*
D03*
X701040D02*
D03*
X815340Y664210D02*
D03*
Y639290D02*
D03*
X877570Y399810D02*
D03*
Y384810D02*
D03*
X689610Y191770D02*
D03*
X739610D02*
D03*
X687070Y283210D02*
D03*
X737070D02*
D03*
X911890Y689610D02*
D03*
X859790D02*
D03*
X914400Y629920D02*
D03*
X862300D02*
D03*
X116840Y327660D02*
D03*
X64840D02*
D03*
X344170Y523240D02*
D03*
X395370D02*
D03*
X307340Y659130D02*
D03*
Y607930D02*
D03*
X119780Y481330D02*
D03*
X68580D02*
D03*
X306070Y259080D02*
D03*
Y207880D02*
D03*
X85960Y836930D02*
D03*
X137160D02*
D03*
X483000Y297180D02*
D03*
X431800D02*
D03*
X408940Y699770D02*
D03*
X460140D02*
D03*
X87630Y596276D02*
D03*
Y616196D02*
D03*
Y720736D02*
D03*
Y740656D02*
D03*
X700170Y675640D02*
D03*
X720090D02*
D03*
X626110Y170180D02*
D03*
Y457200D02*
D03*
X226060Y722630D02*
D03*
X246600D02*
D03*
X622080Y566420D02*
D03*
X642620D02*
D03*
X492760Y198120D02*
D03*
X513300D02*
D03*
X78350Y210820D02*
D03*
X128270D02*
D03*
X74540Y71120D02*
D03*
X124460D02*
D03*
X591430Y814070D02*
D03*
X641350D02*
D03*
X344340Y321310D02*
D03*
X370840D02*
D03*
X867410Y745490D02*
D03*
X893910D02*
D03*
D23*
X881850Y831850D02*
D03*
D24*
X181280Y595630D02*
D03*
Y621030D02*
D03*
Y646430D02*
D03*
Y671830D02*
D03*
X260680D02*
D03*
Y646430D02*
D03*
Y621030D02*
D03*
X185420Y448970D02*
D03*
X210820D02*
D03*
X236220D02*
D03*
X261620D02*
D03*
Y369570D02*
D03*
X236220D02*
D03*
X210820D02*
D03*
X258140Y271780D02*
D03*
Y246380D02*
D03*
Y220980D02*
D03*
Y195580D02*
D03*
X178740D02*
D03*
Y220980D02*
D03*
Y246380D02*
D03*
X595630Y689610D02*
D03*
Y664210D02*
D03*
Y638810D02*
D03*
Y613410D02*
D03*
X516230D02*
D03*
Y638810D02*
D03*
Y664210D02*
D03*
X496570Y456590D02*
D03*
X521970D02*
D03*
X547370D02*
D03*
X572770D02*
D03*
Y377190D02*
D03*
X547370D02*
D03*
X521970D02*
D03*
X873760Y251130D02*
D03*
X848360D02*
D03*
X822960D02*
D03*
X797560D02*
D03*
Y330530D02*
D03*
X822960D02*
D03*
X848360D02*
D03*
D25*
X260680Y595630D02*
D03*
X178740Y271780D02*
D03*
X516230Y689610D02*
D03*
D26*
X185420Y369570D02*
D03*
X496570Y377190D02*
D03*
X873760Y330530D02*
D03*
D27*
X915670Y833120D02*
D03*
X965200Y684530D02*
D03*
M02*
