G04*
G04 #@! TF.GenerationSoftware,Altium Limited,Altium Designer,21.2.0 (30)*
G04*
G04 Layer_Color=8388736*
%FSLAX44Y44*%
%MOMM*%
G71*
G04*
G04 #@! TF.SameCoordinates,A6CD76A2-BFCB-4AF9-B6D0-9A86C89395A1*
G04*
G04*
G04 #@! TF.FilePolarity,Positive*
G04*
G01*
G75*
%ADD12C,0.2540*%
%ADD28C,0.1500*%
D12*
X963925Y834543D02*
Y839622D01*
Y837083D01*
X951229D01*
X948690Y839622D01*
Y842161D01*
X951229Y844700D01*
X948690Y821847D02*
X963925D01*
X956308Y829465D01*
Y819308D01*
X877566Y401083D02*
X880105Y403623D01*
Y408701D01*
X877566Y411240D01*
X867409D01*
X864870Y408701D01*
Y403623D01*
X867409Y401083D01*
X880105Y396005D02*
Y385848D01*
X877566D01*
X867409Y396005D01*
X864870D01*
X518390Y764540D02*
Y749305D01*
X510773D01*
X508233Y751844D01*
Y756923D01*
X510773Y759462D01*
X518390D01*
X513312D02*
X508233Y764540D01*
X503155D02*
X498077D01*
X500616D01*
Y749305D01*
X503155Y751844D01*
X480302Y749305D02*
X485381Y751844D01*
X490459Y756923D01*
Y762001D01*
X487920Y764540D01*
X482841D01*
X480302Y762001D01*
Y759462D01*
X482841Y756923D01*
X490459D01*
X81284Y572143D02*
X78745Y569604D01*
Y564525D01*
X81284Y561986D01*
X91441D01*
X93980Y564525D01*
Y569604D01*
X91441Y572143D01*
X81284Y577221D02*
X78745Y579760D01*
Y584839D01*
X81284Y587378D01*
X83823D01*
X86362Y584839D01*
Y582299D01*
Y584839D01*
X88902Y587378D01*
X91441D01*
X93980Y584839D01*
Y579760D01*
X91441Y577221D01*
X81284Y696603D02*
X78745Y694063D01*
Y688985D01*
X81284Y686446D01*
X91441D01*
X93980Y688985D01*
Y694063D01*
X91441Y696603D01*
X93980Y709299D02*
X78745D01*
X86362Y701681D01*
Y711838D01*
X676037Y681986D02*
X673497Y684525D01*
X668419D01*
X665880Y681986D01*
Y671829D01*
X668419Y669290D01*
X673497D01*
X676037Y671829D01*
X681115Y669290D02*
X686193D01*
X683654D01*
Y684525D01*
X681115Y681986D01*
X703968Y684525D02*
X693811D01*
Y676908D01*
X698889Y679447D01*
X701429D01*
X703968Y676908D01*
Y671829D01*
X701429Y669290D01*
X696350D01*
X693811Y671829D01*
X270357Y840735D02*
X265278D01*
X267817D01*
Y828039D01*
X265278Y825500D01*
X262739D01*
X260200Y828039D01*
X275435Y825500D02*
X280513D01*
X277974D01*
Y840735D01*
X275435Y838196D01*
X184150Y414345D02*
X189228D01*
X186689D01*
Y399110D01*
X184150D01*
X189228D01*
X207003Y411806D02*
X204463Y414345D01*
X199385D01*
X196846Y411806D01*
Y401649D01*
X199385Y399110D01*
X204463D01*
X207003Y401649D01*
X222238Y399110D02*
X212081D01*
X222238Y409267D01*
Y411806D01*
X219698Y414345D01*
X214620D01*
X212081Y411806D01*
X255500Y346710D02*
Y331475D01*
X247882D01*
X245343Y334014D01*
Y339092D01*
X247882Y341632D01*
X255500D01*
X250422D02*
X245343Y346710D01*
X230108D02*
X240265D01*
X230108Y336553D01*
Y334014D01*
X232647Y331475D01*
X237726D01*
X240265Y334014D01*
X330757Y53335D02*
X325678D01*
X328218D01*
Y40639D01*
X325678Y38100D01*
X323139D01*
X320600Y40639D01*
X345992Y38100D02*
X335835D01*
X345992Y48257D01*
Y50796D01*
X343453Y53335D01*
X338374D01*
X335835Y50796D01*
X215905Y594360D02*
Y599438D01*
Y596899D01*
X231140D01*
Y594360D01*
Y599438D01*
X218444Y617213D02*
X215905Y614673D01*
Y609595D01*
X218444Y607056D01*
X228601D01*
X231140Y609595D01*
Y614673D01*
X228601Y617213D01*
X231140Y622291D02*
Y627369D01*
Y624830D01*
X215905D01*
X218444Y622291D01*
X173760Y468630D02*
Y483865D01*
X181378D01*
X183917Y481326D01*
Y476248D01*
X181378Y473709D01*
X173760D01*
X178839D02*
X183917Y468630D01*
X188995Y481326D02*
X191535Y483865D01*
X196613D01*
X199152Y481326D01*
Y478787D01*
X196613Y476248D01*
X194074D01*
X196613D01*
X199152Y473709D01*
Y471169D01*
X196613Y468630D01*
X191535D01*
X188995Y471169D01*
X53340Y392430D02*
Y407665D01*
X60957D01*
X63497Y405126D01*
Y400047D01*
X60957Y397508D01*
X53340D01*
X58418D02*
X63497Y392430D01*
X68575D02*
X73653D01*
X71114D01*
Y407665D01*
X68575Y405126D01*
X523240Y27710D02*
X508005D01*
Y35327D01*
X510544Y37867D01*
X515622D01*
X518162Y35327D01*
Y27710D01*
Y32788D02*
X523240Y37867D01*
Y50563D02*
X508005D01*
X515622Y42945D01*
Y53102D01*
X386080Y570000D02*
X370845D01*
Y577617D01*
X373384Y580157D01*
X378462D01*
X381002Y577617D01*
Y570000D01*
Y575078D02*
X386080Y580157D01*
X370845Y595392D02*
Y585235D01*
X378462D01*
X375923Y590313D01*
Y592853D01*
X378462Y595392D01*
X383541D01*
X386080Y592853D01*
Y587774D01*
X383541Y585235D01*
X226057Y722626D02*
X223517Y725165D01*
X218439D01*
X215900Y722626D01*
Y712469D01*
X218439Y709930D01*
X223517D01*
X226057Y712469D01*
X231135Y722626D02*
X233674Y725165D01*
X238753D01*
X241292Y722626D01*
Y720087D01*
X238753Y717548D01*
X241292Y715008D01*
Y712469D01*
X238753Y709930D01*
X233674D01*
X231135Y712469D01*
Y715008D01*
X233674Y717548D01*
X231135Y720087D01*
Y722626D01*
X233674Y717548D02*
X238753D01*
X229870Y788440D02*
X214635D01*
Y796058D01*
X217174Y798597D01*
X222253D01*
X224792Y796058D01*
Y788440D01*
Y793518D02*
X229870Y798597D01*
X214635Y813832D02*
X217174Y808753D01*
X222253Y803675D01*
X227331D01*
X229870Y806214D01*
Y811293D01*
X227331Y813832D01*
X224792D01*
X222253Y811293D01*
Y803675D01*
X254230Y553720D02*
Y538485D01*
X246612D01*
X244073Y541024D01*
Y546102D01*
X246612Y548642D01*
X254230D01*
X249152D02*
X244073Y553720D01*
X238995Y538485D02*
X228838D01*
Y541024D01*
X238995Y551181D01*
Y553720D01*
X59757Y328926D02*
X57217Y331465D01*
X52139D01*
X49600Y328926D01*
Y318769D01*
X52139Y316230D01*
X57217D01*
X59757Y318769D01*
X64835D02*
X67374Y316230D01*
X72453D01*
X74992Y318769D01*
Y328926D01*
X72453Y331465D01*
X67374D01*
X64835Y328926D01*
Y326387D01*
X67374Y323848D01*
X74992D01*
X284250Y725170D02*
Y740405D01*
X291868D01*
X294407Y737866D01*
Y732787D01*
X291868Y730248D01*
X284250D01*
X289328D02*
X294407Y725170D01*
X299485Y737866D02*
X302024Y740405D01*
X307103D01*
X309642Y737866D01*
Y735327D01*
X307103Y732787D01*
X309642Y730248D01*
Y727709D01*
X307103Y725170D01*
X302024D01*
X299485Y727709D01*
Y730248D01*
X302024Y732787D01*
X299485Y735327D01*
Y737866D01*
X302024Y732787D02*
X307103D01*
X349250Y375690D02*
X334015D01*
Y383307D01*
X336554Y385847D01*
X341632D01*
X344172Y383307D01*
Y375690D01*
Y380768D02*
X349250Y385847D01*
Y390925D02*
Y396003D01*
Y393464D01*
X334015D01*
X336554Y390925D01*
Y403621D02*
X334015Y406160D01*
Y411239D01*
X336554Y413778D01*
X346711D01*
X349250Y411239D01*
Y406160D01*
X346711Y403621D01*
X336554D01*
X387350Y191540D02*
X372115D01*
Y199158D01*
X374654Y201697D01*
X379733D01*
X382272Y199158D01*
Y191540D01*
Y196618D02*
X387350Y201697D01*
X384811Y206775D02*
X387350Y209314D01*
Y214393D01*
X384811Y216932D01*
X374654D01*
X372115Y214393D01*
Y209314D01*
X374654Y206775D01*
X377193D01*
X379733Y209314D01*
Y216932D01*
X266470Y125730D02*
Y140965D01*
X274088D01*
X276627Y138426D01*
Y133348D01*
X274088Y130808D01*
X266470D01*
X271548D02*
X276627Y125730D01*
X281705D02*
X286783D01*
X284244D01*
Y140965D01*
X281705Y138426D01*
X294401Y125730D02*
X299479D01*
X296940D01*
Y140965D01*
X294401Y138426D01*
X223919Y15130D02*
X208684D01*
Y22748D01*
X211223Y25287D01*
X216301D01*
X218840Y22748D01*
Y15130D01*
Y20209D02*
X223919Y25287D01*
Y30366D02*
Y35444D01*
Y32905D01*
X208684D01*
X211223Y30366D01*
X223919Y53218D02*
Y43061D01*
X213762Y53218D01*
X211223D01*
X208684Y50679D01*
Y45601D01*
X211223Y43061D01*
X403860Y376960D02*
X388625D01*
Y384577D01*
X391164Y387117D01*
X396242D01*
X398782Y384577D01*
Y376960D01*
Y382038D02*
X403860Y387117D01*
Y392195D02*
Y397273D01*
Y394734D01*
X388625D01*
X391164Y392195D01*
Y404891D02*
X388625Y407430D01*
Y412509D01*
X391164Y415048D01*
X393703D01*
X396242Y412509D01*
Y409969D01*
Y412509D01*
X398782Y415048D01*
X401321D01*
X403860Y412509D01*
Y407430D01*
X401321Y404891D01*
X223515Y273050D02*
Y267972D01*
Y270511D01*
X208280D01*
Y273050D01*
Y267972D01*
X220976Y250197D02*
X223515Y252737D01*
Y257815D01*
X220976Y260354D01*
X210819D01*
X208280Y257815D01*
Y252737D01*
X210819Y250197D01*
X220976Y245119D02*
X223515Y242580D01*
Y237502D01*
X220976Y234962D01*
X218437D01*
X215898Y237502D01*
Y240041D01*
Y237502D01*
X213358Y234962D01*
X210819D01*
X208280Y237502D01*
Y242580D01*
X210819Y245119D01*
X833350Y756920D02*
Y741685D01*
X825732D01*
X823193Y744224D01*
Y749303D01*
X825732Y751842D01*
X833350D01*
X828272D02*
X823193Y756920D01*
X818115D02*
X813037D01*
X815576D01*
Y741685D01*
X818115Y744224D01*
X797802Y756920D02*
Y741685D01*
X805419Y749303D01*
X795262D01*
X622077Y566416D02*
X619538Y568955D01*
X614459D01*
X611920Y566416D01*
Y556259D01*
X614459Y553720D01*
X619538D01*
X622077Y556259D01*
X627155Y553720D02*
X632233D01*
X629694D01*
Y568955D01*
X627155Y566416D01*
X647468Y553720D02*
Y568955D01*
X639851Y561338D01*
X650008D01*
X390287Y835656D02*
X387747Y838195D01*
X382669D01*
X380130Y835656D01*
Y825499D01*
X382669Y822960D01*
X387747D01*
X390287Y825499D01*
X395365Y822960D02*
Y838195D01*
X405522Y822960D01*
Y838195D01*
X410600Y822960D02*
X415678D01*
X413139D01*
Y838195D01*
X410600Y835656D01*
X883123Y830585D02*
X888202D01*
X885663D01*
Y843281D01*
X888202Y845820D01*
X890741D01*
X893280Y843281D01*
X878045Y833124D02*
X875506Y830585D01*
X870427D01*
X867888Y833124D01*
Y835663D01*
X870427Y838203D01*
X872967D01*
X870427D01*
X867888Y840742D01*
Y843281D01*
X870427Y845820D01*
X875506D01*
X878045Y843281D01*
X561005Y690880D02*
Y685802D01*
Y688341D01*
X545770D01*
Y690880D01*
Y685802D01*
X558466Y668027D02*
X561005Y670567D01*
Y675645D01*
X558466Y678184D01*
X548309D01*
X545770Y675645D01*
Y670567D01*
X548309Y668027D01*
X545770Y655332D02*
X561005D01*
X553387Y662949D01*
Y652792D01*
X539750Y586740D02*
Y571505D01*
X532132D01*
X529593Y574044D01*
Y579123D01*
X532132Y581662D01*
X539750D01*
X534672D02*
X529593Y586740D01*
X524515D02*
X519437D01*
X521976D01*
Y571505D01*
X524515Y574044D01*
X501662Y571505D02*
X511819D01*
Y579123D01*
X506741Y576583D01*
X504202D01*
X501662Y579123D01*
Y584201D01*
X504202Y586740D01*
X509280D01*
X511819Y584201D01*
X501650Y867640D02*
X516885D01*
Y860023D01*
X514346Y857483D01*
X509268D01*
X506728Y860023D01*
Y867640D01*
Y862562D02*
X501650Y857483D01*
Y852405D02*
Y847327D01*
Y849866D01*
X516885D01*
X514346Y852405D01*
X516885Y839709D02*
Y829552D01*
X514346D01*
X504189Y839709D01*
X501650D01*
X433070Y458470D02*
X448305D01*
Y450853D01*
X445766Y448313D01*
X440687D01*
X438148Y450853D01*
Y458470D01*
Y453392D02*
X433070Y448313D01*
Y443235D02*
Y438157D01*
Y440696D01*
X448305D01*
X445766Y443235D01*
X435609Y430539D02*
X433070Y428000D01*
Y422921D01*
X435609Y420382D01*
X445766D01*
X448305Y422921D01*
Y428000D01*
X445766Y430539D01*
X443227D01*
X440687Y428000D01*
Y420382D01*
X538710Y525780D02*
Y510545D01*
X531092D01*
X528553Y513084D01*
Y518162D01*
X531092Y520702D01*
X538710D01*
X533632D02*
X528553Y525780D01*
X523475D02*
X518397D01*
X520936D01*
Y510545D01*
X523475Y513084D01*
X510779D02*
X508240Y510545D01*
X503162D01*
X500622Y513084D01*
Y515623D01*
X503162Y518162D01*
X500622Y520702D01*
Y523241D01*
X503162Y525780D01*
X508240D01*
X510779Y523241D01*
Y520702D01*
X508240Y518162D01*
X510779Y515623D01*
Y513084D01*
X508240Y518162D02*
X503162D01*
X492757Y198116D02*
X490218Y200655D01*
X485139D01*
X482600Y198116D01*
Y187959D01*
X485139Y185420D01*
X490218D01*
X492757Y187959D01*
X497835Y185420D02*
X502913D01*
X500374D01*
Y200655D01*
X497835Y198116D01*
X510531D02*
X513070Y200655D01*
X518148D01*
X520688Y198116D01*
Y195577D01*
X518148Y193037D01*
X520688Y190498D01*
Y187959D01*
X518148Y185420D01*
X513070D01*
X510531Y187959D01*
Y190498D01*
X513070Y193037D01*
X510531Y195577D01*
Y198116D01*
X513070Y193037D02*
X518148D01*
X598170Y26440D02*
X582935D01*
Y34058D01*
X585474Y36597D01*
X590552D01*
X593092Y34058D01*
Y26440D01*
Y31518D02*
X598170Y36597D01*
Y51832D02*
Y41675D01*
X588013Y51832D01*
X585474D01*
X582935Y49293D01*
Y44214D01*
X585474Y41675D01*
Y56910D02*
X582935Y59449D01*
Y64528D01*
X585474Y67067D01*
X595631D01*
X598170Y64528D01*
Y59449D01*
X595631Y56910D01*
X585474D01*
X396010Y139700D02*
Y154935D01*
X403628D01*
X406167Y152396D01*
Y147317D01*
X403628Y144778D01*
X396010D01*
X401088D02*
X406167Y139700D01*
X421402D02*
X411245D01*
X421402Y149857D01*
Y152396D01*
X418863Y154935D01*
X413784D01*
X411245Y152396D01*
X436637Y139700D02*
X426480D01*
X436637Y149857D01*
Y152396D01*
X434098Y154935D01*
X429019D01*
X426480Y152396D01*
X495300Y421965D02*
X500378D01*
X497839D01*
Y406730D01*
X495300D01*
X500378D01*
X518153Y419426D02*
X515613Y421965D01*
X510535D01*
X507996Y419426D01*
Y409269D01*
X510535Y406730D01*
X515613D01*
X518153Y409269D01*
X533388Y421965D02*
X523231D01*
Y414347D01*
X528309Y416887D01*
X530848D01*
X533388Y414347D01*
Y409269D01*
X530848Y406730D01*
X525770D01*
X523231Y409269D01*
X678180Y561340D02*
Y576575D01*
X685798D01*
X688337Y574036D01*
Y568958D01*
X685798Y566419D01*
X678180D01*
X683259D02*
X688337Y561340D01*
X703572D02*
X693415D01*
X703572Y571497D01*
Y574036D01*
X701033Y576575D01*
X695955D01*
X693415Y574036D01*
X708650D02*
X711190Y576575D01*
X716268D01*
X718807Y574036D01*
Y571497D01*
X716268Y568958D01*
X713729D01*
X716268D01*
X718807Y566419D01*
Y563880D01*
X716268Y561340D01*
X711190D01*
X708650Y563880D01*
X732387Y54606D02*
X729847Y57145D01*
X724769D01*
X722230Y54606D01*
Y44449D01*
X724769Y41910D01*
X729847D01*
X732387Y44449D01*
X737465Y41910D02*
Y57145D01*
X747622Y41910D01*
Y57145D01*
X762857Y41910D02*
X752700D01*
X762857Y52067D01*
Y54606D01*
X760318Y57145D01*
X755239D01*
X752700Y54606D01*
X674370Y26440D02*
X659135D01*
Y34058D01*
X661674Y36597D01*
X666752D01*
X669292Y34058D01*
Y26440D01*
Y31518D02*
X674370Y36597D01*
Y51832D02*
Y41675D01*
X664213Y51832D01*
X661674D01*
X659135Y49293D01*
Y44214D01*
X661674Y41675D01*
X674370Y64528D02*
X659135D01*
X666752Y56910D01*
Y67067D01*
X833116Y529593D02*
X835655Y532132D01*
Y537211D01*
X833116Y539750D01*
X822959D01*
X820420Y537211D01*
Y532132D01*
X822959Y529593D01*
X820420Y524515D02*
Y519436D01*
Y521976D01*
X835655D01*
X833116Y524515D01*
X822959Y511819D02*
X820420Y509280D01*
Y504201D01*
X822959Y501662D01*
X833116D01*
X835655Y504201D01*
Y509280D01*
X833116Y511819D01*
X830577D01*
X828038Y509280D01*
Y501662D01*
X683260Y193035D02*
X693417D01*
Y190496D01*
X683260Y180339D01*
Y177800D01*
X693417D01*
X698495Y193035D02*
Y177800D01*
X706113D01*
X708652Y180339D01*
Y190496D01*
X706113Y193035D01*
X698495D01*
X713730Y177800D02*
X718809D01*
X716269D01*
Y193035D01*
X713730Y190496D01*
X857250Y95480D02*
X872485D01*
Y87863D01*
X869946Y85323D01*
X864867D01*
X862328Y87863D01*
Y95480D01*
Y90402D02*
X857250Y85323D01*
Y70088D02*
Y80245D01*
X867407Y70088D01*
X869946D01*
X872485Y72627D01*
Y77706D01*
X869946Y80245D01*
X872485Y54853D02*
Y65010D01*
X864867D01*
X867407Y59932D01*
Y57392D01*
X864867Y54853D01*
X859789D01*
X857250Y57392D01*
Y62471D01*
X859789Y65010D01*
X814066Y671833D02*
X816605Y674372D01*
Y679451D01*
X814066Y681990D01*
X803909D01*
X801370Y679451D01*
Y674372D01*
X803909Y671833D01*
X801370Y656598D02*
Y666755D01*
X811527Y656598D01*
X814066D01*
X816605Y659137D01*
Y664216D01*
X814066Y666755D01*
X801370Y651520D02*
Y646441D01*
Y648981D01*
X816605D01*
X814066Y651520D01*
X875030Y285755D02*
X869952D01*
X872491D01*
Y300990D01*
X875030D01*
X869952D01*
X852177Y288294D02*
X854717Y285755D01*
X859795D01*
X862334Y288294D01*
Y298451D01*
X859795Y300990D01*
X854717D01*
X852177Y298451D01*
X836942Y285755D02*
X842021Y288294D01*
X847099Y293372D01*
Y298451D01*
X844560Y300990D01*
X839482D01*
X836942Y298451D01*
Y295912D01*
X839482Y293372D01*
X847099D01*
X774470Y165100D02*
Y180335D01*
X782087D01*
X784627Y177796D01*
Y172717D01*
X782087Y170178D01*
X774470D01*
X779548D02*
X784627Y165100D01*
X799862D02*
X789705D01*
X799862Y175257D01*
Y177796D01*
X797323Y180335D01*
X792244D01*
X789705Y177796D01*
X815097Y180335D02*
X810018Y177796D01*
X804940Y172717D01*
Y167639D01*
X807479Y165100D01*
X812558D01*
X815097Y167639D01*
Y170178D01*
X812558Y172717D01*
X804940D01*
X695957Y401316D02*
X693418Y403855D01*
X688339D01*
X685800Y401316D01*
Y391159D01*
X688339Y388620D01*
X693418D01*
X695957Y391159D01*
X711192Y388620D02*
X701035D01*
X711192Y398777D01*
Y401316D01*
X708653Y403855D01*
X703574D01*
X701035Y401316D01*
X726427Y388620D02*
X716270D01*
X726427Y398777D01*
Y401316D01*
X723888Y403855D01*
X718809D01*
X716270Y401316D01*
X680720Y284475D02*
X690877D01*
Y281936D01*
X680720Y271779D01*
Y269240D01*
X690877D01*
X695955Y284475D02*
Y269240D01*
X703573D01*
X706112Y271779D01*
Y281936D01*
X703573Y284475D01*
X695955D01*
X721347Y269240D02*
X711190D01*
X721347Y279397D01*
Y281936D01*
X718808Y284475D01*
X713729D01*
X711190Y281936D01*
X678182Y499112D02*
Y514347D01*
X685799D01*
X688339Y511808D01*
Y506729D01*
X685799Y504190D01*
X678182D01*
X683260D02*
X688339Y499112D01*
X703574D02*
X693417D01*
X703574Y509269D01*
Y511808D01*
X701034Y514347D01*
X695956D01*
X693417Y511808D01*
X708652Y514347D02*
X718809D01*
Y511808D01*
X708652Y501651D01*
Y499112D01*
D28*
X898960Y685733D02*
Y695730D01*
X893962D01*
X892296Y694064D01*
Y687399D01*
X893962Y685733D01*
X898960D01*
X888963Y695730D02*
X885631D01*
X887297D01*
Y685733D01*
X888963Y687399D01*
X901470Y626043D02*
Y636040D01*
X896472D01*
X894806Y634374D01*
Y627709D01*
X896472Y626043D01*
X901470D01*
X884809Y636040D02*
X891473D01*
X884809Y629375D01*
Y627709D01*
X886475Y626043D01*
X889807D01*
X891473Y627709D01*
M02*
