M48
;Layer_Color=9474304
;FILE_FORMAT=4:4
METRIC,LZ
;TYPE=PLATED
T1F00S00C0.5000
T2F00S00C0.5500
T3F00S00C0.6000
T4F00S00C0.6500
T5F00S00C0.7000
T6F00S00C0.7112
T7F00S00C0.7500
T8F00S00C0.7800
T9F00S00C0.8000
T10F00S00C1.3000
%
T01
X0081534Y0063929
Y0066421
T02
X0087757Y0038481
Y0039981
T03
X00209949Y0002148
Y0008902
X0027282Y001397
X0034036
X0050927Y001016
Y0003406
X005842Y0003279
Y0010033
X006604
Y0003279
X0087122Y0002159
Y0008913
X0084836Y0017907
X0078082
X0075184Y0040132
X0070104
X0068453Y0051308
X0075207
X0083312Y0052451
Y0047371
X0053236Y0051181
X0046482
X0044704Y0045212
X0038989Y0045085
X0033528Y0044958
Y0038204
X0038989Y0038331
X0044704Y0038458
X004318Y0029718
X00483
X0049276Y0019812
X005133
X004699Y0015367
X0040236
X0037338Y0019789
Y0026543
X0030607Y0025908
Y0020788
X0024915Y0033274
X0018161
X0018011Y004826
X0024765
X0034417Y0052324
X0039537
X0011978Y0048133
X0006858
X0005969Y004064
X0012723
X0011684Y0032766
X0006484
X0008763Y00596276
Y00616196
Y00720736
Y00740656
X0008596Y0083693
X0013716
X002159Y0086233
Y0079479
X0022606Y0072263
X002466
X002906Y0073914
X0035814
X0040894Y0069977
X0046014
X004445Y0075057
X0051204
X0051562Y0079375
Y0086129
X005334Y0057277
X0046586
X0037211Y0057635
Y0064389
X0030734Y0065913
Y0060793
X0024788Y0053975
X0018034
X0062208Y0056642
X0064262
X0068453Y0057531
X0075207
X0072009Y0067564
X0070017
X0075946Y0074295
X00827
T04
X0034434Y0032131
X0037084
X0086741Y0074549
X0089391
T05
X0007454Y0007112
X0012446
X0012827Y0021082
X0007835
X0059143Y0081407
X0064135
T06
X0091567Y0083312
X009652Y0068453
T07
X008623Y0062992
X009144
X0091189Y0068961
X0085979
T08
X0054737Y0037719
X0057277
Y0045659
X0054737
X0079756Y0033053
X0082296
X0084836
X0087376
Y0025113
X0084836
X0082296
X0079756
X0052197Y0037719
X0049657
Y0045659
X0052197
X0026162Y0044897
X0023622
X0021082
X0018542
Y0036957
X0021082
X0023622
X0026162
X0025814Y0027178
Y0024638
Y0022098
Y0019558
X0017874
Y0022098
Y0024638
Y0027178
X0018128Y0059563
Y0062103
Y0064643
Y0067183
X0026068
Y0064643
Y0062103
Y0059563
X0051623Y0061341
Y0063881
Y0066421
Y0068961
X0059563
Y0066421
Y0063881
Y0061341
T09
X0062611Y0017018
X0068961Y0019177
X0073961
X0073707Y0028321
X0068707
X0062611Y004572
T10
X0033076Y0004826
X0036576
X0040076
X0074549Y0005207
X0079549
X0045339Y0083312
X0040339
X0034036Y0083566
X0030536
X0027036
X0073185Y0083185
X0078185
X0083185
X0088185
X0095885Y0083454
Y0079954
Y0076454
M30
